G75*
%MOIN*%
%OFA0B0*%
%FSLAX25Y25*%
%IPPOS*%
%LPD*%
%AMOC8*
5,1,8,0,0,1.08239X$1,22.5*
%
%ADD10R,0.04737X0.05131*%
%ADD11R,0.07099X0.08280*%
%ADD12C,0.01421*%
%ADD13R,0.04737X0.07887*%
%ADD14C,0.08200*%
%ADD15R,0.10643X0.02769*%
%ADD16R,0.10643X0.08674*%
%ADD17C,0.04343*%
%ADD18R,0.05131X0.04737*%
%ADD19C,0.13800*%
%ADD20R,0.05300X0.02300*%
%ADD21C,0.05162*%
D10*
X0168333Y0096654D03*
X0168333Y0103346D03*
X0143333Y0101654D03*
X0143333Y0108346D03*
D11*
X0158333Y0106496D03*
X0158333Y0093504D03*
D12*
X0171539Y0081658D02*
X0171539Y0078342D01*
X0168223Y0078342D01*
X0168223Y0081658D01*
X0171539Y0081658D01*
X0171539Y0079762D02*
X0168223Y0079762D01*
X0168223Y0081182D02*
X0171539Y0081182D01*
X0178444Y0081658D02*
X0178444Y0078342D01*
X0175128Y0078342D01*
X0175128Y0081658D01*
X0178444Y0081658D01*
X0178444Y0079762D02*
X0175128Y0079762D01*
X0175128Y0081182D02*
X0178444Y0081182D01*
X0191539Y0061658D02*
X0191539Y0058342D01*
X0188223Y0058342D01*
X0188223Y0061658D01*
X0191539Y0061658D01*
X0191539Y0059762D02*
X0188223Y0059762D01*
X0188223Y0061182D02*
X0191539Y0061182D01*
X0198444Y0061658D02*
X0198444Y0058342D01*
X0195128Y0058342D01*
X0195128Y0061658D01*
X0198444Y0061658D01*
X0198444Y0059762D02*
X0195128Y0059762D01*
X0195128Y0061182D02*
X0198444Y0061182D01*
D13*
X0153845Y0120000D03*
X0142822Y0120000D03*
D14*
X0243333Y0120000D03*
X0243333Y0110000D03*
X0243333Y0100000D03*
X0243333Y0090000D03*
X0243333Y0080000D03*
X0243333Y0130000D03*
X0243333Y0140000D03*
D15*
X0118176Y0111299D03*
X0118176Y0108150D03*
X0118176Y0105000D03*
X0118176Y0101850D03*
X0118176Y0098701D03*
D16*
X0118176Y0087283D03*
X0096522Y0087283D03*
X0096522Y0122717D03*
X0118176Y0122717D03*
D17*
X0108333Y0113661D03*
X0108333Y0096339D03*
D18*
X0149987Y0080000D03*
X0156680Y0080000D03*
X0169987Y0060000D03*
X0176680Y0060000D03*
D19*
X0103333Y0065000D03*
X0223333Y0065000D03*
X0223333Y0150000D03*
X0103333Y0150000D03*
D20*
X0187783Y0121250D03*
X0187783Y0118750D03*
X0187783Y0116250D03*
X0187783Y0113750D03*
X0187783Y0111250D03*
X0187783Y0108750D03*
X0187783Y0106250D03*
X0187783Y0103750D03*
X0187783Y0101250D03*
X0187783Y0098750D03*
X0208883Y0098750D03*
X0208883Y0101250D03*
X0208883Y0103750D03*
X0208883Y0106250D03*
X0208883Y0108750D03*
X0208883Y0111250D03*
X0208883Y0113750D03*
X0208883Y0116250D03*
X0208883Y0118750D03*
X0208883Y0121250D03*
D21*
X0188333Y0150000D03*
M02*
