G75*
%MOIN*%
%OFA0B0*%
%FSLAX25Y25*%
%IPPOS*%
%LPD*%
%AMOC8*
5,1,8,0,0,1.08239X$1,22.5*
%
%ADD10R,0.03937X0.04331*%
%ADD11R,0.06299X0.07480*%
%ADD12C,0.01181*%
%ADD13R,0.03937X0.07087*%
%ADD14R,0.09843X0.01969*%
%ADD15R,0.09843X0.07874*%
%ADD16R,0.04331X0.03937*%
%ADD17R,0.04500X0.01500*%
D10*
X0168333Y0096654D03*
X0168333Y0103346D03*
X0143333Y0101654D03*
X0143333Y0108346D03*
D11*
X0158333Y0106496D03*
X0158333Y0093504D03*
D12*
X0171259Y0081378D02*
X0171259Y0078622D01*
X0168503Y0078622D01*
X0168503Y0081378D01*
X0171259Y0081378D01*
X0171259Y0079802D02*
X0168503Y0079802D01*
X0168503Y0080982D02*
X0171259Y0080982D01*
X0178164Y0081378D02*
X0178164Y0078622D01*
X0175408Y0078622D01*
X0175408Y0081378D01*
X0178164Y0081378D01*
X0178164Y0079802D02*
X0175408Y0079802D01*
X0175408Y0080982D02*
X0178164Y0080982D01*
X0191259Y0061378D02*
X0191259Y0058622D01*
X0188503Y0058622D01*
X0188503Y0061378D01*
X0191259Y0061378D01*
X0191259Y0059802D02*
X0188503Y0059802D01*
X0188503Y0060982D02*
X0191259Y0060982D01*
X0198164Y0061378D02*
X0198164Y0058622D01*
X0195408Y0058622D01*
X0195408Y0061378D01*
X0198164Y0061378D01*
X0198164Y0059802D02*
X0195408Y0059802D01*
X0195408Y0060982D02*
X0198164Y0060982D01*
D13*
X0153845Y0120000D03*
X0142822Y0120000D03*
D14*
X0118176Y0111299D03*
X0118176Y0108150D03*
X0118176Y0105000D03*
X0118176Y0101850D03*
X0118176Y0098701D03*
D15*
X0118176Y0087283D03*
X0096522Y0087283D03*
X0096522Y0122717D03*
X0118176Y0122717D03*
D16*
X0169987Y0060000D03*
X0176680Y0060000D03*
X0156680Y0080000D03*
X0149987Y0080000D03*
D17*
X0187783Y0098750D03*
X0187783Y0101250D03*
X0187783Y0103750D03*
X0187783Y0106250D03*
X0187783Y0108750D03*
X0187783Y0111250D03*
X0187783Y0113750D03*
X0187783Y0116250D03*
X0187783Y0118750D03*
X0187783Y0121250D03*
X0208883Y0121250D03*
X0208883Y0118750D03*
X0208883Y0116250D03*
X0208883Y0113750D03*
X0208883Y0111250D03*
X0208883Y0108750D03*
X0208883Y0106250D03*
X0208883Y0103750D03*
X0208883Y0101250D03*
X0208883Y0098750D03*
M02*
