G75*
%MOIN*%
%OFA0B0*%
%FSLAX25Y25*%
%IPPOS*%
%LPD*%
%AMOC8*
5,1,8,0,0,1.08239X$1,22.5*
%
%ADD10C,0.00800*%
%ADD11R,0.03937X0.04331*%
%ADD12R,0.06299X0.07480*%
%ADD13C,0.01181*%
%ADD14R,0.03937X0.07087*%
%ADD15C,0.07400*%
%ADD16R,0.09843X0.01969*%
%ADD17R,0.09843X0.07874*%
%ADD18C,0.00000*%
%ADD19R,0.04331X0.03937*%
%ADD20R,0.04500X0.01500*%
%ADD21C,0.01200*%
%ADD22C,0.01600*%
%ADD23C,0.04000*%
%ADD24C,0.04362*%
D10*
X0088333Y0050000D02*
X0088333Y0164961D01*
X0248333Y0165000D01*
X0248333Y0050000D01*
X0088333Y0050000D01*
D11*
X0168333Y0096654D03*
X0168333Y0103346D03*
X0143333Y0101654D03*
X0143333Y0108346D03*
D12*
X0158333Y0106496D03*
X0158333Y0093504D03*
D13*
X0171259Y0081378D02*
X0171259Y0078622D01*
X0168503Y0078622D01*
X0168503Y0081378D01*
X0171259Y0081378D01*
X0171259Y0079802D02*
X0168503Y0079802D01*
X0168503Y0080982D02*
X0171259Y0080982D01*
X0178164Y0081378D02*
X0178164Y0078622D01*
X0175408Y0078622D01*
X0175408Y0081378D01*
X0178164Y0081378D01*
X0178164Y0079802D02*
X0175408Y0079802D01*
X0175408Y0080982D02*
X0178164Y0080982D01*
X0191259Y0061378D02*
X0191259Y0058622D01*
X0188503Y0058622D01*
X0188503Y0061378D01*
X0191259Y0061378D01*
X0191259Y0059802D02*
X0188503Y0059802D01*
X0188503Y0060982D02*
X0191259Y0060982D01*
X0198164Y0061378D02*
X0198164Y0058622D01*
X0195408Y0058622D01*
X0195408Y0061378D01*
X0198164Y0061378D01*
X0198164Y0059802D02*
X0195408Y0059802D01*
X0195408Y0060982D02*
X0198164Y0060982D01*
D14*
X0153845Y0120000D03*
X0142822Y0120000D03*
D15*
X0243333Y0120000D03*
X0243333Y0110000D03*
X0243333Y0100000D03*
X0243333Y0090000D03*
X0243333Y0080000D03*
X0243333Y0130000D03*
X0243333Y0140000D03*
D16*
X0118176Y0111299D03*
X0118176Y0108150D03*
X0118176Y0105000D03*
X0118176Y0101850D03*
X0118176Y0098701D03*
D17*
X0118176Y0087283D03*
X0096522Y0087283D03*
X0096522Y0122717D03*
X0118176Y0122717D03*
D18*
X0106561Y0113661D02*
X0106563Y0113745D01*
X0106569Y0113828D01*
X0106579Y0113911D01*
X0106593Y0113994D01*
X0106610Y0114076D01*
X0106632Y0114157D01*
X0106657Y0114236D01*
X0106686Y0114315D01*
X0106719Y0114392D01*
X0106755Y0114467D01*
X0106795Y0114541D01*
X0106838Y0114613D01*
X0106885Y0114682D01*
X0106935Y0114749D01*
X0106988Y0114814D01*
X0107044Y0114876D01*
X0107102Y0114936D01*
X0107164Y0114993D01*
X0107228Y0115046D01*
X0107295Y0115097D01*
X0107364Y0115144D01*
X0107435Y0115189D01*
X0107508Y0115229D01*
X0107583Y0115266D01*
X0107660Y0115300D01*
X0107738Y0115330D01*
X0107817Y0115356D01*
X0107898Y0115379D01*
X0107980Y0115397D01*
X0108062Y0115412D01*
X0108145Y0115423D01*
X0108228Y0115430D01*
X0108312Y0115433D01*
X0108396Y0115432D01*
X0108479Y0115427D01*
X0108563Y0115418D01*
X0108645Y0115405D01*
X0108727Y0115389D01*
X0108808Y0115368D01*
X0108889Y0115344D01*
X0108967Y0115316D01*
X0109045Y0115284D01*
X0109121Y0115248D01*
X0109195Y0115209D01*
X0109267Y0115167D01*
X0109337Y0115121D01*
X0109405Y0115072D01*
X0109470Y0115020D01*
X0109533Y0114965D01*
X0109593Y0114907D01*
X0109651Y0114846D01*
X0109705Y0114782D01*
X0109757Y0114716D01*
X0109805Y0114648D01*
X0109850Y0114577D01*
X0109891Y0114504D01*
X0109930Y0114430D01*
X0109964Y0114354D01*
X0109995Y0114276D01*
X0110022Y0114197D01*
X0110046Y0114116D01*
X0110065Y0114035D01*
X0110081Y0113953D01*
X0110093Y0113870D01*
X0110101Y0113786D01*
X0110105Y0113703D01*
X0110105Y0113619D01*
X0110101Y0113536D01*
X0110093Y0113452D01*
X0110081Y0113369D01*
X0110065Y0113287D01*
X0110046Y0113206D01*
X0110022Y0113125D01*
X0109995Y0113046D01*
X0109964Y0112968D01*
X0109930Y0112892D01*
X0109891Y0112818D01*
X0109850Y0112745D01*
X0109805Y0112674D01*
X0109757Y0112606D01*
X0109705Y0112540D01*
X0109651Y0112476D01*
X0109593Y0112415D01*
X0109533Y0112357D01*
X0109470Y0112302D01*
X0109405Y0112250D01*
X0109337Y0112201D01*
X0109267Y0112155D01*
X0109195Y0112113D01*
X0109121Y0112074D01*
X0109045Y0112038D01*
X0108967Y0112006D01*
X0108889Y0111978D01*
X0108808Y0111954D01*
X0108727Y0111933D01*
X0108645Y0111917D01*
X0108563Y0111904D01*
X0108479Y0111895D01*
X0108396Y0111890D01*
X0108312Y0111889D01*
X0108228Y0111892D01*
X0108145Y0111899D01*
X0108062Y0111910D01*
X0107980Y0111925D01*
X0107898Y0111943D01*
X0107817Y0111966D01*
X0107738Y0111992D01*
X0107660Y0112022D01*
X0107583Y0112056D01*
X0107508Y0112093D01*
X0107435Y0112133D01*
X0107364Y0112178D01*
X0107295Y0112225D01*
X0107228Y0112276D01*
X0107164Y0112329D01*
X0107102Y0112386D01*
X0107044Y0112446D01*
X0106988Y0112508D01*
X0106935Y0112573D01*
X0106885Y0112640D01*
X0106838Y0112709D01*
X0106795Y0112781D01*
X0106755Y0112855D01*
X0106719Y0112930D01*
X0106686Y0113007D01*
X0106657Y0113086D01*
X0106632Y0113165D01*
X0106610Y0113246D01*
X0106593Y0113328D01*
X0106579Y0113411D01*
X0106569Y0113494D01*
X0106563Y0113577D01*
X0106561Y0113661D01*
X0106561Y0096339D02*
X0106563Y0096423D01*
X0106569Y0096506D01*
X0106579Y0096589D01*
X0106593Y0096672D01*
X0106610Y0096754D01*
X0106632Y0096835D01*
X0106657Y0096914D01*
X0106686Y0096993D01*
X0106719Y0097070D01*
X0106755Y0097145D01*
X0106795Y0097219D01*
X0106838Y0097291D01*
X0106885Y0097360D01*
X0106935Y0097427D01*
X0106988Y0097492D01*
X0107044Y0097554D01*
X0107102Y0097614D01*
X0107164Y0097671D01*
X0107228Y0097724D01*
X0107295Y0097775D01*
X0107364Y0097822D01*
X0107435Y0097867D01*
X0107508Y0097907D01*
X0107583Y0097944D01*
X0107660Y0097978D01*
X0107738Y0098008D01*
X0107817Y0098034D01*
X0107898Y0098057D01*
X0107980Y0098075D01*
X0108062Y0098090D01*
X0108145Y0098101D01*
X0108228Y0098108D01*
X0108312Y0098111D01*
X0108396Y0098110D01*
X0108479Y0098105D01*
X0108563Y0098096D01*
X0108645Y0098083D01*
X0108727Y0098067D01*
X0108808Y0098046D01*
X0108889Y0098022D01*
X0108967Y0097994D01*
X0109045Y0097962D01*
X0109121Y0097926D01*
X0109195Y0097887D01*
X0109267Y0097845D01*
X0109337Y0097799D01*
X0109405Y0097750D01*
X0109470Y0097698D01*
X0109533Y0097643D01*
X0109593Y0097585D01*
X0109651Y0097524D01*
X0109705Y0097460D01*
X0109757Y0097394D01*
X0109805Y0097326D01*
X0109850Y0097255D01*
X0109891Y0097182D01*
X0109930Y0097108D01*
X0109964Y0097032D01*
X0109995Y0096954D01*
X0110022Y0096875D01*
X0110046Y0096794D01*
X0110065Y0096713D01*
X0110081Y0096631D01*
X0110093Y0096548D01*
X0110101Y0096464D01*
X0110105Y0096381D01*
X0110105Y0096297D01*
X0110101Y0096214D01*
X0110093Y0096130D01*
X0110081Y0096047D01*
X0110065Y0095965D01*
X0110046Y0095884D01*
X0110022Y0095803D01*
X0109995Y0095724D01*
X0109964Y0095646D01*
X0109930Y0095570D01*
X0109891Y0095496D01*
X0109850Y0095423D01*
X0109805Y0095352D01*
X0109757Y0095284D01*
X0109705Y0095218D01*
X0109651Y0095154D01*
X0109593Y0095093D01*
X0109533Y0095035D01*
X0109470Y0094980D01*
X0109405Y0094928D01*
X0109337Y0094879D01*
X0109267Y0094833D01*
X0109195Y0094791D01*
X0109121Y0094752D01*
X0109045Y0094716D01*
X0108967Y0094684D01*
X0108889Y0094656D01*
X0108808Y0094632D01*
X0108727Y0094611D01*
X0108645Y0094595D01*
X0108563Y0094582D01*
X0108479Y0094573D01*
X0108396Y0094568D01*
X0108312Y0094567D01*
X0108228Y0094570D01*
X0108145Y0094577D01*
X0108062Y0094588D01*
X0107980Y0094603D01*
X0107898Y0094621D01*
X0107817Y0094644D01*
X0107738Y0094670D01*
X0107660Y0094700D01*
X0107583Y0094734D01*
X0107508Y0094771D01*
X0107435Y0094811D01*
X0107364Y0094856D01*
X0107295Y0094903D01*
X0107228Y0094954D01*
X0107164Y0095007D01*
X0107102Y0095064D01*
X0107044Y0095124D01*
X0106988Y0095186D01*
X0106935Y0095251D01*
X0106885Y0095318D01*
X0106838Y0095387D01*
X0106795Y0095459D01*
X0106755Y0095533D01*
X0106719Y0095608D01*
X0106686Y0095685D01*
X0106657Y0095764D01*
X0106632Y0095843D01*
X0106610Y0095924D01*
X0106593Y0096006D01*
X0106579Y0096089D01*
X0106569Y0096172D01*
X0106563Y0096255D01*
X0106561Y0096339D01*
X0096833Y0065000D02*
X0096835Y0065161D01*
X0096841Y0065321D01*
X0096851Y0065482D01*
X0096865Y0065642D01*
X0096883Y0065802D01*
X0096904Y0065961D01*
X0096930Y0066120D01*
X0096960Y0066278D01*
X0096993Y0066435D01*
X0097031Y0066592D01*
X0097072Y0066747D01*
X0097117Y0066901D01*
X0097166Y0067054D01*
X0097219Y0067206D01*
X0097275Y0067357D01*
X0097336Y0067506D01*
X0097399Y0067654D01*
X0097467Y0067800D01*
X0097538Y0067944D01*
X0097612Y0068086D01*
X0097690Y0068227D01*
X0097772Y0068365D01*
X0097857Y0068502D01*
X0097945Y0068636D01*
X0098037Y0068768D01*
X0098132Y0068898D01*
X0098230Y0069026D01*
X0098331Y0069151D01*
X0098435Y0069273D01*
X0098542Y0069393D01*
X0098652Y0069510D01*
X0098765Y0069625D01*
X0098881Y0069736D01*
X0099000Y0069845D01*
X0099121Y0069950D01*
X0099245Y0070053D01*
X0099371Y0070153D01*
X0099499Y0070249D01*
X0099630Y0070342D01*
X0099764Y0070432D01*
X0099899Y0070519D01*
X0100037Y0070602D01*
X0100176Y0070682D01*
X0100318Y0070758D01*
X0100461Y0070831D01*
X0100606Y0070900D01*
X0100753Y0070966D01*
X0100901Y0071028D01*
X0101051Y0071086D01*
X0101202Y0071141D01*
X0101355Y0071192D01*
X0101509Y0071239D01*
X0101664Y0071282D01*
X0101820Y0071321D01*
X0101976Y0071357D01*
X0102134Y0071388D01*
X0102292Y0071416D01*
X0102451Y0071440D01*
X0102611Y0071460D01*
X0102771Y0071476D01*
X0102931Y0071488D01*
X0103092Y0071496D01*
X0103253Y0071500D01*
X0103413Y0071500D01*
X0103574Y0071496D01*
X0103735Y0071488D01*
X0103895Y0071476D01*
X0104055Y0071460D01*
X0104215Y0071440D01*
X0104374Y0071416D01*
X0104532Y0071388D01*
X0104690Y0071357D01*
X0104846Y0071321D01*
X0105002Y0071282D01*
X0105157Y0071239D01*
X0105311Y0071192D01*
X0105464Y0071141D01*
X0105615Y0071086D01*
X0105765Y0071028D01*
X0105913Y0070966D01*
X0106060Y0070900D01*
X0106205Y0070831D01*
X0106348Y0070758D01*
X0106490Y0070682D01*
X0106629Y0070602D01*
X0106767Y0070519D01*
X0106902Y0070432D01*
X0107036Y0070342D01*
X0107167Y0070249D01*
X0107295Y0070153D01*
X0107421Y0070053D01*
X0107545Y0069950D01*
X0107666Y0069845D01*
X0107785Y0069736D01*
X0107901Y0069625D01*
X0108014Y0069510D01*
X0108124Y0069393D01*
X0108231Y0069273D01*
X0108335Y0069151D01*
X0108436Y0069026D01*
X0108534Y0068898D01*
X0108629Y0068768D01*
X0108721Y0068636D01*
X0108809Y0068502D01*
X0108894Y0068365D01*
X0108976Y0068227D01*
X0109054Y0068086D01*
X0109128Y0067944D01*
X0109199Y0067800D01*
X0109267Y0067654D01*
X0109330Y0067506D01*
X0109391Y0067357D01*
X0109447Y0067206D01*
X0109500Y0067054D01*
X0109549Y0066901D01*
X0109594Y0066747D01*
X0109635Y0066592D01*
X0109673Y0066435D01*
X0109706Y0066278D01*
X0109736Y0066120D01*
X0109762Y0065961D01*
X0109783Y0065802D01*
X0109801Y0065642D01*
X0109815Y0065482D01*
X0109825Y0065321D01*
X0109831Y0065161D01*
X0109833Y0065000D01*
X0109831Y0064839D01*
X0109825Y0064679D01*
X0109815Y0064518D01*
X0109801Y0064358D01*
X0109783Y0064198D01*
X0109762Y0064039D01*
X0109736Y0063880D01*
X0109706Y0063722D01*
X0109673Y0063565D01*
X0109635Y0063408D01*
X0109594Y0063253D01*
X0109549Y0063099D01*
X0109500Y0062946D01*
X0109447Y0062794D01*
X0109391Y0062643D01*
X0109330Y0062494D01*
X0109267Y0062346D01*
X0109199Y0062200D01*
X0109128Y0062056D01*
X0109054Y0061914D01*
X0108976Y0061773D01*
X0108894Y0061635D01*
X0108809Y0061498D01*
X0108721Y0061364D01*
X0108629Y0061232D01*
X0108534Y0061102D01*
X0108436Y0060974D01*
X0108335Y0060849D01*
X0108231Y0060727D01*
X0108124Y0060607D01*
X0108014Y0060490D01*
X0107901Y0060375D01*
X0107785Y0060264D01*
X0107666Y0060155D01*
X0107545Y0060050D01*
X0107421Y0059947D01*
X0107295Y0059847D01*
X0107167Y0059751D01*
X0107036Y0059658D01*
X0106902Y0059568D01*
X0106767Y0059481D01*
X0106629Y0059398D01*
X0106490Y0059318D01*
X0106348Y0059242D01*
X0106205Y0059169D01*
X0106060Y0059100D01*
X0105913Y0059034D01*
X0105765Y0058972D01*
X0105615Y0058914D01*
X0105464Y0058859D01*
X0105311Y0058808D01*
X0105157Y0058761D01*
X0105002Y0058718D01*
X0104846Y0058679D01*
X0104690Y0058643D01*
X0104532Y0058612D01*
X0104374Y0058584D01*
X0104215Y0058560D01*
X0104055Y0058540D01*
X0103895Y0058524D01*
X0103735Y0058512D01*
X0103574Y0058504D01*
X0103413Y0058500D01*
X0103253Y0058500D01*
X0103092Y0058504D01*
X0102931Y0058512D01*
X0102771Y0058524D01*
X0102611Y0058540D01*
X0102451Y0058560D01*
X0102292Y0058584D01*
X0102134Y0058612D01*
X0101976Y0058643D01*
X0101820Y0058679D01*
X0101664Y0058718D01*
X0101509Y0058761D01*
X0101355Y0058808D01*
X0101202Y0058859D01*
X0101051Y0058914D01*
X0100901Y0058972D01*
X0100753Y0059034D01*
X0100606Y0059100D01*
X0100461Y0059169D01*
X0100318Y0059242D01*
X0100176Y0059318D01*
X0100037Y0059398D01*
X0099899Y0059481D01*
X0099764Y0059568D01*
X0099630Y0059658D01*
X0099499Y0059751D01*
X0099371Y0059847D01*
X0099245Y0059947D01*
X0099121Y0060050D01*
X0099000Y0060155D01*
X0098881Y0060264D01*
X0098765Y0060375D01*
X0098652Y0060490D01*
X0098542Y0060607D01*
X0098435Y0060727D01*
X0098331Y0060849D01*
X0098230Y0060974D01*
X0098132Y0061102D01*
X0098037Y0061232D01*
X0097945Y0061364D01*
X0097857Y0061498D01*
X0097772Y0061635D01*
X0097690Y0061773D01*
X0097612Y0061914D01*
X0097538Y0062056D01*
X0097467Y0062200D01*
X0097399Y0062346D01*
X0097336Y0062494D01*
X0097275Y0062643D01*
X0097219Y0062794D01*
X0097166Y0062946D01*
X0097117Y0063099D01*
X0097072Y0063253D01*
X0097031Y0063408D01*
X0096993Y0063565D01*
X0096960Y0063722D01*
X0096930Y0063880D01*
X0096904Y0064039D01*
X0096883Y0064198D01*
X0096865Y0064358D01*
X0096851Y0064518D01*
X0096841Y0064679D01*
X0096835Y0064839D01*
X0096833Y0065000D01*
X0216833Y0065000D02*
X0216835Y0065161D01*
X0216841Y0065321D01*
X0216851Y0065482D01*
X0216865Y0065642D01*
X0216883Y0065802D01*
X0216904Y0065961D01*
X0216930Y0066120D01*
X0216960Y0066278D01*
X0216993Y0066435D01*
X0217031Y0066592D01*
X0217072Y0066747D01*
X0217117Y0066901D01*
X0217166Y0067054D01*
X0217219Y0067206D01*
X0217275Y0067357D01*
X0217336Y0067506D01*
X0217399Y0067654D01*
X0217467Y0067800D01*
X0217538Y0067944D01*
X0217612Y0068086D01*
X0217690Y0068227D01*
X0217772Y0068365D01*
X0217857Y0068502D01*
X0217945Y0068636D01*
X0218037Y0068768D01*
X0218132Y0068898D01*
X0218230Y0069026D01*
X0218331Y0069151D01*
X0218435Y0069273D01*
X0218542Y0069393D01*
X0218652Y0069510D01*
X0218765Y0069625D01*
X0218881Y0069736D01*
X0219000Y0069845D01*
X0219121Y0069950D01*
X0219245Y0070053D01*
X0219371Y0070153D01*
X0219499Y0070249D01*
X0219630Y0070342D01*
X0219764Y0070432D01*
X0219899Y0070519D01*
X0220037Y0070602D01*
X0220176Y0070682D01*
X0220318Y0070758D01*
X0220461Y0070831D01*
X0220606Y0070900D01*
X0220753Y0070966D01*
X0220901Y0071028D01*
X0221051Y0071086D01*
X0221202Y0071141D01*
X0221355Y0071192D01*
X0221509Y0071239D01*
X0221664Y0071282D01*
X0221820Y0071321D01*
X0221976Y0071357D01*
X0222134Y0071388D01*
X0222292Y0071416D01*
X0222451Y0071440D01*
X0222611Y0071460D01*
X0222771Y0071476D01*
X0222931Y0071488D01*
X0223092Y0071496D01*
X0223253Y0071500D01*
X0223413Y0071500D01*
X0223574Y0071496D01*
X0223735Y0071488D01*
X0223895Y0071476D01*
X0224055Y0071460D01*
X0224215Y0071440D01*
X0224374Y0071416D01*
X0224532Y0071388D01*
X0224690Y0071357D01*
X0224846Y0071321D01*
X0225002Y0071282D01*
X0225157Y0071239D01*
X0225311Y0071192D01*
X0225464Y0071141D01*
X0225615Y0071086D01*
X0225765Y0071028D01*
X0225913Y0070966D01*
X0226060Y0070900D01*
X0226205Y0070831D01*
X0226348Y0070758D01*
X0226490Y0070682D01*
X0226629Y0070602D01*
X0226767Y0070519D01*
X0226902Y0070432D01*
X0227036Y0070342D01*
X0227167Y0070249D01*
X0227295Y0070153D01*
X0227421Y0070053D01*
X0227545Y0069950D01*
X0227666Y0069845D01*
X0227785Y0069736D01*
X0227901Y0069625D01*
X0228014Y0069510D01*
X0228124Y0069393D01*
X0228231Y0069273D01*
X0228335Y0069151D01*
X0228436Y0069026D01*
X0228534Y0068898D01*
X0228629Y0068768D01*
X0228721Y0068636D01*
X0228809Y0068502D01*
X0228894Y0068365D01*
X0228976Y0068227D01*
X0229054Y0068086D01*
X0229128Y0067944D01*
X0229199Y0067800D01*
X0229267Y0067654D01*
X0229330Y0067506D01*
X0229391Y0067357D01*
X0229447Y0067206D01*
X0229500Y0067054D01*
X0229549Y0066901D01*
X0229594Y0066747D01*
X0229635Y0066592D01*
X0229673Y0066435D01*
X0229706Y0066278D01*
X0229736Y0066120D01*
X0229762Y0065961D01*
X0229783Y0065802D01*
X0229801Y0065642D01*
X0229815Y0065482D01*
X0229825Y0065321D01*
X0229831Y0065161D01*
X0229833Y0065000D01*
X0229831Y0064839D01*
X0229825Y0064679D01*
X0229815Y0064518D01*
X0229801Y0064358D01*
X0229783Y0064198D01*
X0229762Y0064039D01*
X0229736Y0063880D01*
X0229706Y0063722D01*
X0229673Y0063565D01*
X0229635Y0063408D01*
X0229594Y0063253D01*
X0229549Y0063099D01*
X0229500Y0062946D01*
X0229447Y0062794D01*
X0229391Y0062643D01*
X0229330Y0062494D01*
X0229267Y0062346D01*
X0229199Y0062200D01*
X0229128Y0062056D01*
X0229054Y0061914D01*
X0228976Y0061773D01*
X0228894Y0061635D01*
X0228809Y0061498D01*
X0228721Y0061364D01*
X0228629Y0061232D01*
X0228534Y0061102D01*
X0228436Y0060974D01*
X0228335Y0060849D01*
X0228231Y0060727D01*
X0228124Y0060607D01*
X0228014Y0060490D01*
X0227901Y0060375D01*
X0227785Y0060264D01*
X0227666Y0060155D01*
X0227545Y0060050D01*
X0227421Y0059947D01*
X0227295Y0059847D01*
X0227167Y0059751D01*
X0227036Y0059658D01*
X0226902Y0059568D01*
X0226767Y0059481D01*
X0226629Y0059398D01*
X0226490Y0059318D01*
X0226348Y0059242D01*
X0226205Y0059169D01*
X0226060Y0059100D01*
X0225913Y0059034D01*
X0225765Y0058972D01*
X0225615Y0058914D01*
X0225464Y0058859D01*
X0225311Y0058808D01*
X0225157Y0058761D01*
X0225002Y0058718D01*
X0224846Y0058679D01*
X0224690Y0058643D01*
X0224532Y0058612D01*
X0224374Y0058584D01*
X0224215Y0058560D01*
X0224055Y0058540D01*
X0223895Y0058524D01*
X0223735Y0058512D01*
X0223574Y0058504D01*
X0223413Y0058500D01*
X0223253Y0058500D01*
X0223092Y0058504D01*
X0222931Y0058512D01*
X0222771Y0058524D01*
X0222611Y0058540D01*
X0222451Y0058560D01*
X0222292Y0058584D01*
X0222134Y0058612D01*
X0221976Y0058643D01*
X0221820Y0058679D01*
X0221664Y0058718D01*
X0221509Y0058761D01*
X0221355Y0058808D01*
X0221202Y0058859D01*
X0221051Y0058914D01*
X0220901Y0058972D01*
X0220753Y0059034D01*
X0220606Y0059100D01*
X0220461Y0059169D01*
X0220318Y0059242D01*
X0220176Y0059318D01*
X0220037Y0059398D01*
X0219899Y0059481D01*
X0219764Y0059568D01*
X0219630Y0059658D01*
X0219499Y0059751D01*
X0219371Y0059847D01*
X0219245Y0059947D01*
X0219121Y0060050D01*
X0219000Y0060155D01*
X0218881Y0060264D01*
X0218765Y0060375D01*
X0218652Y0060490D01*
X0218542Y0060607D01*
X0218435Y0060727D01*
X0218331Y0060849D01*
X0218230Y0060974D01*
X0218132Y0061102D01*
X0218037Y0061232D01*
X0217945Y0061364D01*
X0217857Y0061498D01*
X0217772Y0061635D01*
X0217690Y0061773D01*
X0217612Y0061914D01*
X0217538Y0062056D01*
X0217467Y0062200D01*
X0217399Y0062346D01*
X0217336Y0062494D01*
X0217275Y0062643D01*
X0217219Y0062794D01*
X0217166Y0062946D01*
X0217117Y0063099D01*
X0217072Y0063253D01*
X0217031Y0063408D01*
X0216993Y0063565D01*
X0216960Y0063722D01*
X0216930Y0063880D01*
X0216904Y0064039D01*
X0216883Y0064198D01*
X0216865Y0064358D01*
X0216851Y0064518D01*
X0216841Y0064679D01*
X0216835Y0064839D01*
X0216833Y0065000D01*
X0216833Y0150000D02*
X0216835Y0150161D01*
X0216841Y0150321D01*
X0216851Y0150482D01*
X0216865Y0150642D01*
X0216883Y0150802D01*
X0216904Y0150961D01*
X0216930Y0151120D01*
X0216960Y0151278D01*
X0216993Y0151435D01*
X0217031Y0151592D01*
X0217072Y0151747D01*
X0217117Y0151901D01*
X0217166Y0152054D01*
X0217219Y0152206D01*
X0217275Y0152357D01*
X0217336Y0152506D01*
X0217399Y0152654D01*
X0217467Y0152800D01*
X0217538Y0152944D01*
X0217612Y0153086D01*
X0217690Y0153227D01*
X0217772Y0153365D01*
X0217857Y0153502D01*
X0217945Y0153636D01*
X0218037Y0153768D01*
X0218132Y0153898D01*
X0218230Y0154026D01*
X0218331Y0154151D01*
X0218435Y0154273D01*
X0218542Y0154393D01*
X0218652Y0154510D01*
X0218765Y0154625D01*
X0218881Y0154736D01*
X0219000Y0154845D01*
X0219121Y0154950D01*
X0219245Y0155053D01*
X0219371Y0155153D01*
X0219499Y0155249D01*
X0219630Y0155342D01*
X0219764Y0155432D01*
X0219899Y0155519D01*
X0220037Y0155602D01*
X0220176Y0155682D01*
X0220318Y0155758D01*
X0220461Y0155831D01*
X0220606Y0155900D01*
X0220753Y0155966D01*
X0220901Y0156028D01*
X0221051Y0156086D01*
X0221202Y0156141D01*
X0221355Y0156192D01*
X0221509Y0156239D01*
X0221664Y0156282D01*
X0221820Y0156321D01*
X0221976Y0156357D01*
X0222134Y0156388D01*
X0222292Y0156416D01*
X0222451Y0156440D01*
X0222611Y0156460D01*
X0222771Y0156476D01*
X0222931Y0156488D01*
X0223092Y0156496D01*
X0223253Y0156500D01*
X0223413Y0156500D01*
X0223574Y0156496D01*
X0223735Y0156488D01*
X0223895Y0156476D01*
X0224055Y0156460D01*
X0224215Y0156440D01*
X0224374Y0156416D01*
X0224532Y0156388D01*
X0224690Y0156357D01*
X0224846Y0156321D01*
X0225002Y0156282D01*
X0225157Y0156239D01*
X0225311Y0156192D01*
X0225464Y0156141D01*
X0225615Y0156086D01*
X0225765Y0156028D01*
X0225913Y0155966D01*
X0226060Y0155900D01*
X0226205Y0155831D01*
X0226348Y0155758D01*
X0226490Y0155682D01*
X0226629Y0155602D01*
X0226767Y0155519D01*
X0226902Y0155432D01*
X0227036Y0155342D01*
X0227167Y0155249D01*
X0227295Y0155153D01*
X0227421Y0155053D01*
X0227545Y0154950D01*
X0227666Y0154845D01*
X0227785Y0154736D01*
X0227901Y0154625D01*
X0228014Y0154510D01*
X0228124Y0154393D01*
X0228231Y0154273D01*
X0228335Y0154151D01*
X0228436Y0154026D01*
X0228534Y0153898D01*
X0228629Y0153768D01*
X0228721Y0153636D01*
X0228809Y0153502D01*
X0228894Y0153365D01*
X0228976Y0153227D01*
X0229054Y0153086D01*
X0229128Y0152944D01*
X0229199Y0152800D01*
X0229267Y0152654D01*
X0229330Y0152506D01*
X0229391Y0152357D01*
X0229447Y0152206D01*
X0229500Y0152054D01*
X0229549Y0151901D01*
X0229594Y0151747D01*
X0229635Y0151592D01*
X0229673Y0151435D01*
X0229706Y0151278D01*
X0229736Y0151120D01*
X0229762Y0150961D01*
X0229783Y0150802D01*
X0229801Y0150642D01*
X0229815Y0150482D01*
X0229825Y0150321D01*
X0229831Y0150161D01*
X0229833Y0150000D01*
X0229831Y0149839D01*
X0229825Y0149679D01*
X0229815Y0149518D01*
X0229801Y0149358D01*
X0229783Y0149198D01*
X0229762Y0149039D01*
X0229736Y0148880D01*
X0229706Y0148722D01*
X0229673Y0148565D01*
X0229635Y0148408D01*
X0229594Y0148253D01*
X0229549Y0148099D01*
X0229500Y0147946D01*
X0229447Y0147794D01*
X0229391Y0147643D01*
X0229330Y0147494D01*
X0229267Y0147346D01*
X0229199Y0147200D01*
X0229128Y0147056D01*
X0229054Y0146914D01*
X0228976Y0146773D01*
X0228894Y0146635D01*
X0228809Y0146498D01*
X0228721Y0146364D01*
X0228629Y0146232D01*
X0228534Y0146102D01*
X0228436Y0145974D01*
X0228335Y0145849D01*
X0228231Y0145727D01*
X0228124Y0145607D01*
X0228014Y0145490D01*
X0227901Y0145375D01*
X0227785Y0145264D01*
X0227666Y0145155D01*
X0227545Y0145050D01*
X0227421Y0144947D01*
X0227295Y0144847D01*
X0227167Y0144751D01*
X0227036Y0144658D01*
X0226902Y0144568D01*
X0226767Y0144481D01*
X0226629Y0144398D01*
X0226490Y0144318D01*
X0226348Y0144242D01*
X0226205Y0144169D01*
X0226060Y0144100D01*
X0225913Y0144034D01*
X0225765Y0143972D01*
X0225615Y0143914D01*
X0225464Y0143859D01*
X0225311Y0143808D01*
X0225157Y0143761D01*
X0225002Y0143718D01*
X0224846Y0143679D01*
X0224690Y0143643D01*
X0224532Y0143612D01*
X0224374Y0143584D01*
X0224215Y0143560D01*
X0224055Y0143540D01*
X0223895Y0143524D01*
X0223735Y0143512D01*
X0223574Y0143504D01*
X0223413Y0143500D01*
X0223253Y0143500D01*
X0223092Y0143504D01*
X0222931Y0143512D01*
X0222771Y0143524D01*
X0222611Y0143540D01*
X0222451Y0143560D01*
X0222292Y0143584D01*
X0222134Y0143612D01*
X0221976Y0143643D01*
X0221820Y0143679D01*
X0221664Y0143718D01*
X0221509Y0143761D01*
X0221355Y0143808D01*
X0221202Y0143859D01*
X0221051Y0143914D01*
X0220901Y0143972D01*
X0220753Y0144034D01*
X0220606Y0144100D01*
X0220461Y0144169D01*
X0220318Y0144242D01*
X0220176Y0144318D01*
X0220037Y0144398D01*
X0219899Y0144481D01*
X0219764Y0144568D01*
X0219630Y0144658D01*
X0219499Y0144751D01*
X0219371Y0144847D01*
X0219245Y0144947D01*
X0219121Y0145050D01*
X0219000Y0145155D01*
X0218881Y0145264D01*
X0218765Y0145375D01*
X0218652Y0145490D01*
X0218542Y0145607D01*
X0218435Y0145727D01*
X0218331Y0145849D01*
X0218230Y0145974D01*
X0218132Y0146102D01*
X0218037Y0146232D01*
X0217945Y0146364D01*
X0217857Y0146498D01*
X0217772Y0146635D01*
X0217690Y0146773D01*
X0217612Y0146914D01*
X0217538Y0147056D01*
X0217467Y0147200D01*
X0217399Y0147346D01*
X0217336Y0147494D01*
X0217275Y0147643D01*
X0217219Y0147794D01*
X0217166Y0147946D01*
X0217117Y0148099D01*
X0217072Y0148253D01*
X0217031Y0148408D01*
X0216993Y0148565D01*
X0216960Y0148722D01*
X0216930Y0148880D01*
X0216904Y0149039D01*
X0216883Y0149198D01*
X0216865Y0149358D01*
X0216851Y0149518D01*
X0216841Y0149679D01*
X0216835Y0149839D01*
X0216833Y0150000D01*
X0096833Y0150000D02*
X0096835Y0150161D01*
X0096841Y0150321D01*
X0096851Y0150482D01*
X0096865Y0150642D01*
X0096883Y0150802D01*
X0096904Y0150961D01*
X0096930Y0151120D01*
X0096960Y0151278D01*
X0096993Y0151435D01*
X0097031Y0151592D01*
X0097072Y0151747D01*
X0097117Y0151901D01*
X0097166Y0152054D01*
X0097219Y0152206D01*
X0097275Y0152357D01*
X0097336Y0152506D01*
X0097399Y0152654D01*
X0097467Y0152800D01*
X0097538Y0152944D01*
X0097612Y0153086D01*
X0097690Y0153227D01*
X0097772Y0153365D01*
X0097857Y0153502D01*
X0097945Y0153636D01*
X0098037Y0153768D01*
X0098132Y0153898D01*
X0098230Y0154026D01*
X0098331Y0154151D01*
X0098435Y0154273D01*
X0098542Y0154393D01*
X0098652Y0154510D01*
X0098765Y0154625D01*
X0098881Y0154736D01*
X0099000Y0154845D01*
X0099121Y0154950D01*
X0099245Y0155053D01*
X0099371Y0155153D01*
X0099499Y0155249D01*
X0099630Y0155342D01*
X0099764Y0155432D01*
X0099899Y0155519D01*
X0100037Y0155602D01*
X0100176Y0155682D01*
X0100318Y0155758D01*
X0100461Y0155831D01*
X0100606Y0155900D01*
X0100753Y0155966D01*
X0100901Y0156028D01*
X0101051Y0156086D01*
X0101202Y0156141D01*
X0101355Y0156192D01*
X0101509Y0156239D01*
X0101664Y0156282D01*
X0101820Y0156321D01*
X0101976Y0156357D01*
X0102134Y0156388D01*
X0102292Y0156416D01*
X0102451Y0156440D01*
X0102611Y0156460D01*
X0102771Y0156476D01*
X0102931Y0156488D01*
X0103092Y0156496D01*
X0103253Y0156500D01*
X0103413Y0156500D01*
X0103574Y0156496D01*
X0103735Y0156488D01*
X0103895Y0156476D01*
X0104055Y0156460D01*
X0104215Y0156440D01*
X0104374Y0156416D01*
X0104532Y0156388D01*
X0104690Y0156357D01*
X0104846Y0156321D01*
X0105002Y0156282D01*
X0105157Y0156239D01*
X0105311Y0156192D01*
X0105464Y0156141D01*
X0105615Y0156086D01*
X0105765Y0156028D01*
X0105913Y0155966D01*
X0106060Y0155900D01*
X0106205Y0155831D01*
X0106348Y0155758D01*
X0106490Y0155682D01*
X0106629Y0155602D01*
X0106767Y0155519D01*
X0106902Y0155432D01*
X0107036Y0155342D01*
X0107167Y0155249D01*
X0107295Y0155153D01*
X0107421Y0155053D01*
X0107545Y0154950D01*
X0107666Y0154845D01*
X0107785Y0154736D01*
X0107901Y0154625D01*
X0108014Y0154510D01*
X0108124Y0154393D01*
X0108231Y0154273D01*
X0108335Y0154151D01*
X0108436Y0154026D01*
X0108534Y0153898D01*
X0108629Y0153768D01*
X0108721Y0153636D01*
X0108809Y0153502D01*
X0108894Y0153365D01*
X0108976Y0153227D01*
X0109054Y0153086D01*
X0109128Y0152944D01*
X0109199Y0152800D01*
X0109267Y0152654D01*
X0109330Y0152506D01*
X0109391Y0152357D01*
X0109447Y0152206D01*
X0109500Y0152054D01*
X0109549Y0151901D01*
X0109594Y0151747D01*
X0109635Y0151592D01*
X0109673Y0151435D01*
X0109706Y0151278D01*
X0109736Y0151120D01*
X0109762Y0150961D01*
X0109783Y0150802D01*
X0109801Y0150642D01*
X0109815Y0150482D01*
X0109825Y0150321D01*
X0109831Y0150161D01*
X0109833Y0150000D01*
X0109831Y0149839D01*
X0109825Y0149679D01*
X0109815Y0149518D01*
X0109801Y0149358D01*
X0109783Y0149198D01*
X0109762Y0149039D01*
X0109736Y0148880D01*
X0109706Y0148722D01*
X0109673Y0148565D01*
X0109635Y0148408D01*
X0109594Y0148253D01*
X0109549Y0148099D01*
X0109500Y0147946D01*
X0109447Y0147794D01*
X0109391Y0147643D01*
X0109330Y0147494D01*
X0109267Y0147346D01*
X0109199Y0147200D01*
X0109128Y0147056D01*
X0109054Y0146914D01*
X0108976Y0146773D01*
X0108894Y0146635D01*
X0108809Y0146498D01*
X0108721Y0146364D01*
X0108629Y0146232D01*
X0108534Y0146102D01*
X0108436Y0145974D01*
X0108335Y0145849D01*
X0108231Y0145727D01*
X0108124Y0145607D01*
X0108014Y0145490D01*
X0107901Y0145375D01*
X0107785Y0145264D01*
X0107666Y0145155D01*
X0107545Y0145050D01*
X0107421Y0144947D01*
X0107295Y0144847D01*
X0107167Y0144751D01*
X0107036Y0144658D01*
X0106902Y0144568D01*
X0106767Y0144481D01*
X0106629Y0144398D01*
X0106490Y0144318D01*
X0106348Y0144242D01*
X0106205Y0144169D01*
X0106060Y0144100D01*
X0105913Y0144034D01*
X0105765Y0143972D01*
X0105615Y0143914D01*
X0105464Y0143859D01*
X0105311Y0143808D01*
X0105157Y0143761D01*
X0105002Y0143718D01*
X0104846Y0143679D01*
X0104690Y0143643D01*
X0104532Y0143612D01*
X0104374Y0143584D01*
X0104215Y0143560D01*
X0104055Y0143540D01*
X0103895Y0143524D01*
X0103735Y0143512D01*
X0103574Y0143504D01*
X0103413Y0143500D01*
X0103253Y0143500D01*
X0103092Y0143504D01*
X0102931Y0143512D01*
X0102771Y0143524D01*
X0102611Y0143540D01*
X0102451Y0143560D01*
X0102292Y0143584D01*
X0102134Y0143612D01*
X0101976Y0143643D01*
X0101820Y0143679D01*
X0101664Y0143718D01*
X0101509Y0143761D01*
X0101355Y0143808D01*
X0101202Y0143859D01*
X0101051Y0143914D01*
X0100901Y0143972D01*
X0100753Y0144034D01*
X0100606Y0144100D01*
X0100461Y0144169D01*
X0100318Y0144242D01*
X0100176Y0144318D01*
X0100037Y0144398D01*
X0099899Y0144481D01*
X0099764Y0144568D01*
X0099630Y0144658D01*
X0099499Y0144751D01*
X0099371Y0144847D01*
X0099245Y0144947D01*
X0099121Y0145050D01*
X0099000Y0145155D01*
X0098881Y0145264D01*
X0098765Y0145375D01*
X0098652Y0145490D01*
X0098542Y0145607D01*
X0098435Y0145727D01*
X0098331Y0145849D01*
X0098230Y0145974D01*
X0098132Y0146102D01*
X0098037Y0146232D01*
X0097945Y0146364D01*
X0097857Y0146498D01*
X0097772Y0146635D01*
X0097690Y0146773D01*
X0097612Y0146914D01*
X0097538Y0147056D01*
X0097467Y0147200D01*
X0097399Y0147346D01*
X0097336Y0147494D01*
X0097275Y0147643D01*
X0097219Y0147794D01*
X0097166Y0147946D01*
X0097117Y0148099D01*
X0097072Y0148253D01*
X0097031Y0148408D01*
X0096993Y0148565D01*
X0096960Y0148722D01*
X0096930Y0148880D01*
X0096904Y0149039D01*
X0096883Y0149198D01*
X0096865Y0149358D01*
X0096851Y0149518D01*
X0096841Y0149679D01*
X0096835Y0149839D01*
X0096833Y0150000D01*
D19*
X0149987Y0080000D03*
X0156680Y0080000D03*
X0169987Y0060000D03*
X0176680Y0060000D03*
D20*
X0187783Y0098750D03*
X0187783Y0101250D03*
X0187783Y0103750D03*
X0187783Y0106250D03*
X0187783Y0108750D03*
X0187783Y0111250D03*
X0187783Y0113750D03*
X0187783Y0116250D03*
X0187783Y0118750D03*
X0187783Y0121250D03*
X0208883Y0121250D03*
X0208883Y0118750D03*
X0208883Y0116250D03*
X0208883Y0113750D03*
X0208883Y0111250D03*
X0208883Y0108750D03*
X0208883Y0106250D03*
X0208883Y0103750D03*
X0208883Y0101250D03*
X0208883Y0098750D03*
D21*
X0208333Y0098200D01*
X0208333Y0075000D01*
X0198333Y0065000D01*
X0143333Y0065000D01*
X0128333Y0080000D01*
X0128333Y0100000D01*
X0123333Y0105000D01*
X0118176Y0105000D01*
X0118176Y0108150D02*
X0125184Y0108150D01*
X0133333Y0100000D01*
X0133333Y0080000D01*
X0143333Y0070000D01*
X0183333Y0070000D01*
X0193333Y0080000D01*
X0193333Y0090000D01*
X0204583Y0101250D01*
X0208883Y0101250D01*
X0215833Y0105000D02*
X0212083Y0108750D01*
X0208883Y0108750D01*
X0204583Y0108750D01*
X0198333Y0115000D01*
X0198333Y0120000D01*
X0188333Y0130000D01*
X0163333Y0130000D01*
X0163333Y0129488D01*
X0153845Y0120000D01*
X0168333Y0115000D02*
X0168333Y0103346D01*
X0178333Y0095000D02*
X0184583Y0101250D01*
X0187783Y0101250D01*
X0187783Y0098750D02*
X0188333Y0098200D01*
X0188333Y0085000D01*
X0183333Y0080000D01*
X0176786Y0080000D01*
X0178333Y0090000D02*
X0178333Y0095000D01*
X0178333Y0110000D02*
X0182083Y0113750D01*
X0187783Y0113750D01*
X0187783Y0116250D02*
X0169583Y0116250D01*
X0168333Y0115000D01*
X0173333Y0125000D02*
X0179583Y0118750D01*
X0187783Y0118750D01*
X0208883Y0113750D02*
X0222083Y0113750D01*
X0225833Y0110000D01*
X0225833Y0086547D01*
X0199286Y0060000D01*
X0196786Y0060000D01*
X0233333Y0080000D02*
X0233333Y0105000D01*
X0238333Y0110000D01*
X0243333Y0110000D01*
X0218333Y0110000D02*
X0217083Y0111250D01*
X0208883Y0111250D01*
X0215833Y0105000D02*
X0215833Y0090000D01*
D22*
X0212150Y0091561D02*
X0210933Y0091561D01*
X0211833Y0090796D02*
X0212442Y0092266D01*
X0213233Y0093057D01*
X0213233Y0103923D01*
X0213133Y0104023D01*
X0213133Y0097172D01*
X0211962Y0096000D01*
X0210933Y0096000D01*
X0210933Y0075324D01*
X0223233Y0087624D01*
X0223233Y0108923D01*
X0221006Y0111150D01*
X0213083Y0111150D01*
X0213556Y0110954D01*
X0214287Y0110223D01*
X0218037Y0106473D01*
X0218433Y0105517D01*
X0218433Y0093057D01*
X0219224Y0092266D01*
X0219833Y0090796D01*
X0219833Y0089204D01*
X0219224Y0087734D01*
X0218099Y0086609D01*
X0216629Y0086000D01*
X0215038Y0086000D01*
X0213568Y0086609D01*
X0212442Y0087734D01*
X0211833Y0089204D01*
X0211833Y0090796D01*
X0211833Y0089963D02*
X0210933Y0089963D01*
X0210933Y0088364D02*
X0212181Y0088364D01*
X0213411Y0086766D02*
X0210933Y0086766D01*
X0210933Y0085167D02*
X0220776Y0085167D01*
X0219178Y0083569D02*
X0210933Y0083569D01*
X0210933Y0081970D02*
X0217579Y0081970D01*
X0215981Y0080372D02*
X0210933Y0080372D01*
X0210933Y0078773D02*
X0214382Y0078773D01*
X0212784Y0077175D02*
X0210933Y0077175D01*
X0210933Y0075576D02*
X0211185Y0075576D01*
X0215342Y0072379D02*
X0217037Y0072379D01*
X0216941Y0073978D02*
X0219638Y0073978D01*
X0218409Y0073530D02*
X0221623Y0074700D01*
X0225044Y0074700D01*
X0228258Y0073530D01*
X0228258Y0073530D01*
X0230879Y0071331D01*
X0232589Y0068369D01*
X0232589Y0068369D01*
X0233183Y0065000D01*
X0233183Y0065000D01*
X0232589Y0061631D01*
X0232589Y0061631D01*
X0230879Y0058669D01*
X0230879Y0058669D01*
X0230879Y0058669D01*
X0228258Y0056470D01*
X0228258Y0056470D01*
X0225044Y0055300D01*
X0222856Y0055300D01*
X0221623Y0055300D01*
X0218409Y0056470D01*
X0218409Y0056470D01*
X0215788Y0058669D01*
X0215788Y0058669D01*
X0214078Y0061631D01*
X0214078Y0061631D01*
X0213484Y0065000D01*
X0213484Y0065000D01*
X0214078Y0068369D01*
X0214078Y0068369D01*
X0215788Y0071331D01*
X0215788Y0071331D01*
X0215788Y0071331D01*
X0218409Y0073530D01*
X0218409Y0073530D01*
X0218539Y0075576D02*
X0240065Y0075576D01*
X0239750Y0075805D02*
X0240451Y0075296D01*
X0241222Y0074903D01*
X0242045Y0074635D01*
X0242900Y0074500D01*
X0243133Y0074500D01*
X0243133Y0079800D01*
X0237833Y0079800D01*
X0237833Y0079567D01*
X0237969Y0078712D01*
X0238236Y0077889D01*
X0238629Y0077117D01*
X0239138Y0076417D01*
X0239750Y0075805D01*
X0238600Y0077175D02*
X0236165Y0077175D01*
X0236724Y0077734D02*
X0235599Y0076609D01*
X0234129Y0076000D01*
X0232538Y0076000D01*
X0231068Y0076609D01*
X0229942Y0077734D01*
X0229333Y0079204D01*
X0229333Y0080796D01*
X0229942Y0082266D01*
X0230733Y0083057D01*
X0230733Y0105517D01*
X0231129Y0106473D01*
X0231861Y0107204D01*
X0236861Y0112204D01*
X0237816Y0112600D01*
X0238241Y0112600D01*
X0238501Y0113229D01*
X0240105Y0114832D01*
X0240510Y0115000D01*
X0240105Y0115168D01*
X0238501Y0116771D01*
X0237633Y0118866D01*
X0237633Y0121134D01*
X0238501Y0123229D01*
X0240105Y0124832D01*
X0240510Y0125000D01*
X0240105Y0125168D01*
X0238501Y0126771D01*
X0237633Y0128866D01*
X0237633Y0130340D01*
X0226169Y0118876D01*
X0225140Y0118450D01*
X0213133Y0118450D01*
X0213133Y0116350D01*
X0222601Y0116350D01*
X0223556Y0115954D01*
X0224287Y0115223D01*
X0228037Y0111473D01*
X0228433Y0110517D01*
X0228433Y0086030D01*
X0228037Y0085074D01*
X0200759Y0057796D01*
X0200598Y0057729D01*
X0200360Y0057155D01*
X0199631Y0056426D01*
X0198679Y0056031D01*
X0194893Y0056031D01*
X0193941Y0056426D01*
X0193333Y0057033D01*
X0192726Y0056426D01*
X0191774Y0056031D01*
X0187987Y0056031D01*
X0187035Y0056426D01*
X0186306Y0057155D01*
X0186288Y0057200D01*
X0180842Y0057200D01*
X0179674Y0056031D01*
X0173686Y0056031D01*
X0173174Y0056543D01*
X0172847Y0056354D01*
X0172389Y0056231D01*
X0170171Y0056231D01*
X0170171Y0059816D01*
X0169803Y0059816D01*
X0169803Y0056231D01*
X0167585Y0056231D01*
X0167127Y0056354D01*
X0166716Y0056591D01*
X0166381Y0056926D01*
X0166144Y0057337D01*
X0166022Y0057795D01*
X0166022Y0059816D01*
X0169803Y0059816D01*
X0169803Y0060184D01*
X0166022Y0060184D01*
X0166022Y0062205D01*
X0166074Y0062400D01*
X0142816Y0062400D01*
X0141861Y0062796D01*
X0141129Y0063527D01*
X0126129Y0078527D01*
X0125733Y0079483D01*
X0125733Y0098923D01*
X0124897Y0099759D01*
X0124897Y0098701D01*
X0118176Y0098701D01*
X0118176Y0098701D01*
X0124897Y0098701D01*
X0124897Y0097480D01*
X0124774Y0097022D01*
X0124537Y0096611D01*
X0124202Y0096276D01*
X0123792Y0096039D01*
X0123334Y0095917D01*
X0118176Y0095917D01*
X0118176Y0098701D01*
X0118176Y0098701D01*
X0111455Y0098701D01*
X0111455Y0099838D01*
X0111255Y0100038D01*
X0111255Y0111249D01*
X0110470Y0110464D01*
X0109084Y0109890D01*
X0107583Y0109890D01*
X0106197Y0110464D01*
X0105136Y0111525D01*
X0104562Y0112911D01*
X0104562Y0114412D01*
X0105136Y0115798D01*
X0106197Y0116859D01*
X0107583Y0117433D01*
X0109084Y0117433D01*
X0110470Y0116859D01*
X0111531Y0115798D01*
X0112105Y0114412D01*
X0112105Y0113962D01*
X0112426Y0114283D01*
X0123926Y0114283D01*
X0124110Y0114099D01*
X0128473Y0114099D01*
X0136747Y0122374D01*
X0137776Y0122800D01*
X0138853Y0122800D01*
X0138853Y0124372D01*
X0140025Y0125543D01*
X0145618Y0125543D01*
X0146790Y0124372D01*
X0146790Y0115628D01*
X0145618Y0114457D01*
X0140025Y0114457D01*
X0138853Y0115628D01*
X0138853Y0116560D01*
X0131219Y0108925D01*
X0130189Y0108499D01*
X0128511Y0108499D01*
X0134806Y0102204D01*
X0135537Y0101473D01*
X0135933Y0100517D01*
X0135933Y0081077D01*
X0144410Y0072600D01*
X0182256Y0072600D01*
X0190733Y0081077D01*
X0190733Y0084000D01*
X0190537Y0083527D01*
X0189806Y0082796D01*
X0184806Y0077796D01*
X0183851Y0077400D01*
X0180462Y0077400D01*
X0180360Y0077155D01*
X0179631Y0076426D01*
X0178679Y0076031D01*
X0174893Y0076031D01*
X0173941Y0076426D01*
X0173333Y0077033D01*
X0172726Y0076426D01*
X0171774Y0076031D01*
X0167987Y0076031D01*
X0167035Y0076426D01*
X0166306Y0077155D01*
X0166288Y0077200D01*
X0160842Y0077200D01*
X0159674Y0076031D01*
X0153686Y0076031D01*
X0153174Y0076543D01*
X0152847Y0076354D01*
X0152389Y0076231D01*
X0150171Y0076231D01*
X0150171Y0079816D01*
X0149803Y0079816D01*
X0149803Y0076231D01*
X0147585Y0076231D01*
X0147127Y0076354D01*
X0146716Y0076591D01*
X0146381Y0076926D01*
X0146144Y0077337D01*
X0146022Y0077795D01*
X0146022Y0079816D01*
X0149803Y0079816D01*
X0149803Y0080184D01*
X0146022Y0080184D01*
X0146022Y0082205D01*
X0146144Y0082663D01*
X0146381Y0083074D01*
X0146716Y0083409D01*
X0147127Y0083646D01*
X0147585Y0083768D01*
X0149803Y0083768D01*
X0149803Y0080184D01*
X0150171Y0080184D01*
X0150171Y0083768D01*
X0152389Y0083768D01*
X0152847Y0083646D01*
X0153174Y0083457D01*
X0153686Y0083968D01*
X0159674Y0083968D01*
X0160842Y0082800D01*
X0166288Y0082800D01*
X0166306Y0082845D01*
X0167035Y0083574D01*
X0167987Y0083968D01*
X0171774Y0083968D01*
X0172726Y0083574D01*
X0173333Y0082967D01*
X0173941Y0083574D01*
X0174893Y0083968D01*
X0178679Y0083968D01*
X0179631Y0083574D01*
X0180360Y0082845D01*
X0180462Y0082600D01*
X0182256Y0082600D01*
X0185733Y0086077D01*
X0185733Y0096000D01*
X0184705Y0096000D01*
X0183858Y0096847D01*
X0180933Y0093923D01*
X0180933Y0093057D01*
X0181724Y0092266D01*
X0182333Y0090796D01*
X0182333Y0089204D01*
X0181724Y0087734D01*
X0180599Y0086609D01*
X0179129Y0086000D01*
X0177538Y0086000D01*
X0176068Y0086609D01*
X0174942Y0087734D01*
X0174333Y0089204D01*
X0174333Y0090796D01*
X0174942Y0092266D01*
X0175733Y0093057D01*
X0175733Y0095517D01*
X0176129Y0096473D01*
X0176861Y0097204D01*
X0176861Y0097204D01*
X0182379Y0102723D01*
X0182379Y0102723D01*
X0183111Y0103454D01*
X0183533Y0103629D01*
X0183533Y0107828D01*
X0183733Y0108028D01*
X0183733Y0108750D01*
X0184455Y0108750D01*
X0184455Y0108750D01*
X0184455Y0108750D01*
X0183733Y0108750D01*
X0183733Y0109472D01*
X0183533Y0109672D01*
X0183533Y0111150D01*
X0183160Y0111150D01*
X0182333Y0110323D01*
X0182333Y0109204D01*
X0181724Y0107734D01*
X0180599Y0106609D01*
X0179129Y0106000D01*
X0177538Y0106000D01*
X0176068Y0106609D01*
X0174942Y0107734D01*
X0174333Y0109204D01*
X0174333Y0110796D01*
X0174942Y0112266D01*
X0176068Y0113391D01*
X0176693Y0113650D01*
X0172104Y0113650D01*
X0171724Y0112734D01*
X0170933Y0111943D01*
X0170933Y0107512D01*
X0171130Y0107512D01*
X0172302Y0106340D01*
X0172302Y0100353D01*
X0171790Y0099841D01*
X0171979Y0099514D01*
X0172102Y0099056D01*
X0172102Y0096838D01*
X0168518Y0096838D01*
X0168518Y0096469D01*
X0172102Y0096469D01*
X0172102Y0094251D01*
X0171979Y0093793D01*
X0171742Y0093383D01*
X0171407Y0093048D01*
X0170997Y0092811D01*
X0170539Y0092688D01*
X0168518Y0092688D01*
X0168518Y0096469D01*
X0168149Y0096469D01*
X0168149Y0092688D01*
X0166128Y0092688D01*
X0165670Y0092811D01*
X0165260Y0093048D01*
X0164924Y0093383D01*
X0164687Y0093793D01*
X0164565Y0094251D01*
X0164565Y0096469D01*
X0168149Y0096469D01*
X0168149Y0096838D01*
X0164565Y0096838D01*
X0164565Y0099056D01*
X0164687Y0099514D01*
X0164876Y0099841D01*
X0164365Y0100353D01*
X0164365Y0106340D01*
X0165536Y0107512D01*
X0165733Y0107512D01*
X0165733Y0111943D01*
X0164942Y0112734D01*
X0164333Y0114204D01*
X0164333Y0115796D01*
X0164942Y0117266D01*
X0166068Y0118391D01*
X0167538Y0119000D01*
X0169129Y0119000D01*
X0169491Y0118850D01*
X0175806Y0118850D01*
X0173656Y0121000D01*
X0172538Y0121000D01*
X0171068Y0121609D01*
X0169942Y0122734D01*
X0169333Y0124204D01*
X0169333Y0125796D01*
X0169942Y0127266D01*
X0170076Y0127400D01*
X0164922Y0127400D01*
X0157814Y0120292D01*
X0157814Y0119991D01*
X0160707Y0117098D01*
X0161133Y0116069D01*
X0161133Y0112236D01*
X0162311Y0112236D01*
X0163483Y0111065D01*
X0163483Y0101927D01*
X0162311Y0100756D01*
X0154355Y0100756D01*
X0153184Y0101927D01*
X0153184Y0105546D01*
X0147302Y0105546D01*
X0147302Y0105353D01*
X0146790Y0104841D01*
X0146979Y0104514D01*
X0147102Y0104056D01*
X0147102Y0101838D01*
X0143518Y0101838D01*
X0143518Y0101469D01*
X0147102Y0101469D01*
X0147102Y0099251D01*
X0146979Y0098793D01*
X0146742Y0098383D01*
X0146407Y0098048D01*
X0145997Y0097811D01*
X0145539Y0097688D01*
X0143518Y0097688D01*
X0143518Y0101469D01*
X0143149Y0101469D01*
X0143149Y0097688D01*
X0141128Y0097688D01*
X0140670Y0097811D01*
X0140260Y0098048D01*
X0139924Y0098383D01*
X0139687Y0098793D01*
X0139565Y0099251D01*
X0139565Y0101469D01*
X0143149Y0101469D01*
X0143149Y0101838D01*
X0139565Y0101838D01*
X0139565Y0104056D01*
X0139687Y0104514D01*
X0139876Y0104841D01*
X0139365Y0105353D01*
X0139365Y0111340D01*
X0140536Y0112512D01*
X0146130Y0112512D01*
X0147302Y0111340D01*
X0147302Y0111146D01*
X0153266Y0111146D01*
X0154355Y0112236D01*
X0155533Y0112236D01*
X0155533Y0114352D01*
X0155429Y0114457D01*
X0151048Y0114457D01*
X0149877Y0115628D01*
X0149877Y0124372D01*
X0151048Y0125543D01*
X0155712Y0125543D01*
X0160767Y0130599D01*
X0161129Y0131473D01*
X0161861Y0132204D01*
X0162816Y0132600D01*
X0188851Y0132600D01*
X0189806Y0132204D01*
X0200537Y0121473D01*
X0200933Y0120517D01*
X0200933Y0116077D01*
X0204633Y0112377D01*
X0204633Y0122828D01*
X0205805Y0124000D01*
X0208206Y0124000D01*
X0208326Y0124050D01*
X0223424Y0124050D01*
X0237811Y0138437D01*
X0237633Y0138866D01*
X0237633Y0141134D01*
X0238501Y0143229D01*
X0240105Y0144832D01*
X0242200Y0145700D01*
X0244467Y0145700D01*
X0245933Y0145093D01*
X0245933Y0162599D01*
X0090733Y0162561D01*
X0090733Y0128614D01*
X0090773Y0128654D01*
X0102272Y0128654D01*
X0103444Y0127482D01*
X0103444Y0117951D01*
X0102272Y0116780D01*
X0090773Y0116780D01*
X0090733Y0116819D01*
X0090733Y0093181D01*
X0090773Y0093220D01*
X0102272Y0093220D01*
X0103444Y0092049D01*
X0103444Y0082518D01*
X0102272Y0081346D01*
X0090773Y0081346D01*
X0090733Y0081386D01*
X0090733Y0052400D01*
X0245933Y0052400D01*
X0245933Y0075152D01*
X0245445Y0074903D01*
X0244621Y0074635D01*
X0243766Y0074500D01*
X0243533Y0074500D01*
X0243533Y0079800D01*
X0243133Y0079800D01*
X0243133Y0080200D01*
X0237833Y0080200D01*
X0237833Y0080433D01*
X0237969Y0081288D01*
X0238236Y0082111D01*
X0238629Y0082883D01*
X0239138Y0083583D01*
X0239750Y0084195D01*
X0240451Y0084704D01*
X0240798Y0084881D01*
X0240105Y0085168D01*
X0238501Y0086771D01*
X0237633Y0088866D01*
X0237633Y0091134D01*
X0238501Y0093229D01*
X0240105Y0094832D01*
X0240510Y0095000D01*
X0240105Y0095168D01*
X0238501Y0096771D01*
X0237633Y0098866D01*
X0237633Y0101134D01*
X0238501Y0103229D01*
X0240105Y0104832D01*
X0240510Y0105000D01*
X0240105Y0105168D01*
X0238641Y0106631D01*
X0235933Y0103923D01*
X0235933Y0083057D01*
X0236724Y0082266D01*
X0237333Y0080796D01*
X0237333Y0079204D01*
X0236724Y0077734D01*
X0237155Y0078773D02*
X0237959Y0078773D01*
X0237833Y0080372D02*
X0237333Y0080372D01*
X0236847Y0081970D02*
X0238190Y0081970D01*
X0239128Y0083569D02*
X0235933Y0083569D01*
X0235933Y0085167D02*
X0240106Y0085167D01*
X0238507Y0086766D02*
X0235933Y0086766D01*
X0235933Y0088364D02*
X0237841Y0088364D01*
X0237633Y0089963D02*
X0235933Y0089963D01*
X0235933Y0091561D02*
X0237810Y0091561D01*
X0238473Y0093160D02*
X0235933Y0093160D01*
X0235933Y0094758D02*
X0240031Y0094758D01*
X0238915Y0096357D02*
X0235933Y0096357D01*
X0235933Y0097955D02*
X0238011Y0097955D01*
X0237633Y0099554D02*
X0235933Y0099554D01*
X0235933Y0101152D02*
X0237641Y0101152D01*
X0238303Y0102751D02*
X0235933Y0102751D01*
X0236360Y0104349D02*
X0239622Y0104349D01*
X0239324Y0105948D02*
X0237958Y0105948D01*
X0232203Y0107546D02*
X0228433Y0107546D01*
X0228433Y0105948D02*
X0230912Y0105948D01*
X0230733Y0104349D02*
X0228433Y0104349D01*
X0228433Y0102751D02*
X0230733Y0102751D01*
X0230733Y0101152D02*
X0228433Y0101152D01*
X0228433Y0099554D02*
X0230733Y0099554D01*
X0230733Y0097955D02*
X0228433Y0097955D01*
X0228433Y0096357D02*
X0230733Y0096357D01*
X0230733Y0094758D02*
X0228433Y0094758D01*
X0228433Y0093160D02*
X0230733Y0093160D01*
X0230733Y0091561D02*
X0228433Y0091561D01*
X0228433Y0089963D02*
X0230733Y0089963D01*
X0230733Y0088364D02*
X0228433Y0088364D01*
X0228433Y0086766D02*
X0230733Y0086766D01*
X0230733Y0085167D02*
X0228076Y0085167D01*
X0226532Y0083569D02*
X0230733Y0083569D01*
X0229820Y0081970D02*
X0224933Y0081970D01*
X0223335Y0080372D02*
X0229333Y0080372D01*
X0229512Y0078773D02*
X0221736Y0078773D01*
X0220138Y0077175D02*
X0230502Y0077175D01*
X0227028Y0073978D02*
X0245933Y0073978D01*
X0245933Y0072379D02*
X0229630Y0072379D01*
X0231196Y0070781D02*
X0245933Y0070781D01*
X0245933Y0069182D02*
X0232119Y0069182D01*
X0232727Y0067584D02*
X0245933Y0067584D01*
X0245933Y0065985D02*
X0233009Y0065985D01*
X0233075Y0064387D02*
X0245933Y0064387D01*
X0245933Y0062788D02*
X0232793Y0062788D01*
X0232334Y0061190D02*
X0245933Y0061190D01*
X0245933Y0059591D02*
X0231411Y0059591D01*
X0230073Y0057993D02*
X0245933Y0057993D01*
X0245933Y0056394D02*
X0228050Y0056394D01*
X0218617Y0056394D02*
X0199555Y0056394D01*
X0200956Y0057993D02*
X0216594Y0057993D01*
X0215256Y0059591D02*
X0202554Y0059591D01*
X0204153Y0061190D02*
X0214333Y0061190D01*
X0213874Y0062788D02*
X0205751Y0062788D01*
X0207350Y0064387D02*
X0213592Y0064387D01*
X0213657Y0065985D02*
X0208948Y0065985D01*
X0210547Y0067584D02*
X0213939Y0067584D01*
X0214547Y0069182D02*
X0212145Y0069182D01*
X0213744Y0070781D02*
X0215470Y0070781D01*
X0205733Y0076077D02*
X0197256Y0067600D01*
X0184333Y0067600D01*
X0184806Y0067796D01*
X0194806Y0077796D01*
X0195537Y0078527D01*
X0195933Y0079483D01*
X0195933Y0088923D01*
X0204633Y0097623D01*
X0204633Y0097172D01*
X0205733Y0096072D01*
X0205733Y0076077D01*
X0205233Y0075576D02*
X0192586Y0075576D01*
X0190988Y0073978D02*
X0203634Y0073978D01*
X0202036Y0072379D02*
X0189389Y0072379D01*
X0187791Y0070781D02*
X0200437Y0070781D01*
X0198839Y0069182D02*
X0186192Y0069182D01*
X0183634Y0073978D02*
X0143033Y0073978D01*
X0141434Y0075576D02*
X0185233Y0075576D01*
X0186831Y0077175D02*
X0180368Y0077175D01*
X0185783Y0078773D02*
X0188430Y0078773D01*
X0187382Y0080372D02*
X0190028Y0080372D01*
X0190733Y0081970D02*
X0188980Y0081970D01*
X0190555Y0083569D02*
X0190733Y0083569D01*
X0195933Y0083569D02*
X0205733Y0083569D01*
X0205733Y0085167D02*
X0195933Y0085167D01*
X0195933Y0086766D02*
X0205733Y0086766D01*
X0205733Y0088364D02*
X0195933Y0088364D01*
X0196973Y0089963D02*
X0205733Y0089963D01*
X0205733Y0091561D02*
X0198572Y0091561D01*
X0200170Y0093160D02*
X0205733Y0093160D01*
X0205733Y0094758D02*
X0201769Y0094758D01*
X0203367Y0096357D02*
X0205448Y0096357D01*
X0210933Y0094758D02*
X0213233Y0094758D01*
X0213233Y0093160D02*
X0210933Y0093160D01*
X0218433Y0093160D02*
X0223233Y0093160D01*
X0223233Y0094758D02*
X0218433Y0094758D01*
X0218433Y0096357D02*
X0223233Y0096357D01*
X0223233Y0097955D02*
X0218433Y0097955D01*
X0218433Y0099554D02*
X0223233Y0099554D01*
X0223233Y0101152D02*
X0218433Y0101152D01*
X0218433Y0102751D02*
X0223233Y0102751D01*
X0223233Y0104349D02*
X0218433Y0104349D01*
X0218255Y0105948D02*
X0223233Y0105948D01*
X0223233Y0107546D02*
X0216964Y0107546D01*
X0215365Y0109145D02*
X0223011Y0109145D01*
X0221413Y0110743D02*
X0213767Y0110743D01*
X0204633Y0113940D02*
X0203070Y0113940D01*
X0204633Y0115539D02*
X0201471Y0115539D01*
X0200933Y0117137D02*
X0204633Y0117137D01*
X0204633Y0118736D02*
X0200933Y0118736D01*
X0200933Y0120334D02*
X0204633Y0120334D01*
X0204633Y0121933D02*
X0200077Y0121933D01*
X0198479Y0123532D02*
X0205336Y0123532D01*
X0208883Y0121250D02*
X0224583Y0121250D01*
X0243333Y0140000D01*
X0237633Y0139517D02*
X0090733Y0139517D01*
X0090733Y0141115D02*
X0099383Y0141115D01*
X0098409Y0141470D02*
X0101623Y0140300D01*
X0103811Y0140300D01*
X0105044Y0140300D01*
X0108258Y0141470D01*
X0108258Y0141470D01*
X0110879Y0143669D01*
X0112589Y0146631D01*
X0112589Y0146631D01*
X0113183Y0150000D01*
X0112589Y0153369D01*
X0110879Y0156331D01*
X0110879Y0156331D01*
X0108258Y0158530D01*
X0105044Y0159700D01*
X0101623Y0159700D01*
X0098409Y0158530D01*
X0098409Y0158530D01*
X0095788Y0156331D01*
X0094078Y0153369D01*
X0094078Y0153369D01*
X0093484Y0150000D01*
X0094078Y0146631D01*
X0095788Y0143669D01*
X0095788Y0143669D01*
X0098409Y0141470D01*
X0098409Y0141470D01*
X0096926Y0142714D02*
X0090733Y0142714D01*
X0090733Y0144312D02*
X0095417Y0144312D01*
X0094494Y0145911D02*
X0090733Y0145911D01*
X0090733Y0147509D02*
X0093923Y0147509D01*
X0094078Y0146631D02*
X0094078Y0146631D01*
X0093641Y0149108D02*
X0090733Y0149108D01*
X0090733Y0150706D02*
X0093608Y0150706D01*
X0093484Y0150000D02*
X0093484Y0150000D01*
X0093890Y0152305D02*
X0090733Y0152305D01*
X0090733Y0153903D02*
X0094386Y0153903D01*
X0095309Y0155502D02*
X0090733Y0155502D01*
X0090733Y0157100D02*
X0096705Y0157100D01*
X0095788Y0156331D02*
X0095788Y0156331D01*
X0095788Y0156331D01*
X0098872Y0158699D02*
X0090733Y0158699D01*
X0090733Y0160297D02*
X0245933Y0160297D01*
X0245933Y0158699D02*
X0227795Y0158699D01*
X0228258Y0158530D02*
X0225044Y0159700D01*
X0221623Y0159700D01*
X0218409Y0158530D01*
X0218409Y0158530D01*
X0215788Y0156331D01*
X0214078Y0153369D01*
X0214078Y0153369D01*
X0213484Y0150000D01*
X0214078Y0146631D01*
X0215788Y0143669D01*
X0218409Y0141470D01*
X0221623Y0140300D01*
X0222856Y0140300D01*
X0225044Y0140300D01*
X0228258Y0141470D01*
X0228258Y0141470D01*
X0230879Y0143669D01*
X0232589Y0146631D01*
X0232589Y0146631D01*
X0233183Y0150000D01*
X0232589Y0153369D01*
X0230879Y0156331D01*
X0230879Y0156331D01*
X0228258Y0158530D01*
X0228258Y0158530D01*
X0229962Y0157100D02*
X0245933Y0157100D01*
X0245933Y0155502D02*
X0231357Y0155502D01*
X0232280Y0153903D02*
X0245933Y0153903D01*
X0245933Y0152305D02*
X0232777Y0152305D01*
X0232589Y0153369D02*
X0232589Y0153369D01*
X0233058Y0150706D02*
X0245933Y0150706D01*
X0245933Y0149108D02*
X0233026Y0149108D01*
X0233183Y0150000D02*
X0233183Y0150000D01*
X0232744Y0147509D02*
X0245933Y0147509D01*
X0245933Y0145911D02*
X0232173Y0145911D01*
X0231250Y0144312D02*
X0239584Y0144312D01*
X0238288Y0142714D02*
X0229740Y0142714D01*
X0230879Y0143669D02*
X0230879Y0143669D01*
X0230879Y0143669D01*
X0227283Y0141115D02*
X0237633Y0141115D01*
X0237292Y0137918D02*
X0090733Y0137918D01*
X0090733Y0136320D02*
X0235693Y0136320D01*
X0234095Y0134721D02*
X0090733Y0134721D01*
X0090733Y0133123D02*
X0232496Y0133123D01*
X0230898Y0131524D02*
X0190486Y0131524D01*
X0192085Y0129926D02*
X0229299Y0129926D01*
X0227701Y0128327D02*
X0193683Y0128327D01*
X0195282Y0126729D02*
X0226102Y0126729D01*
X0224504Y0125130D02*
X0196880Y0125130D01*
X0213133Y0117137D02*
X0238349Y0117137D01*
X0237687Y0118736D02*
X0225831Y0118736D01*
X0227628Y0120334D02*
X0237633Y0120334D01*
X0237964Y0121933D02*
X0229226Y0121933D01*
X0230825Y0123532D02*
X0238804Y0123532D01*
X0240196Y0125130D02*
X0232423Y0125130D01*
X0234022Y0126729D02*
X0238544Y0126729D01*
X0237857Y0128327D02*
X0235620Y0128327D01*
X0237219Y0129926D02*
X0237633Y0129926D01*
X0219383Y0141115D02*
X0107283Y0141115D01*
X0105044Y0140300D02*
X0105044Y0140300D01*
X0109740Y0142714D02*
X0216926Y0142714D01*
X0218409Y0141470D02*
X0218409Y0141470D01*
X0215417Y0144312D02*
X0111250Y0144312D01*
X0110879Y0143669D02*
X0110879Y0143669D01*
X0110879Y0143669D01*
X0112173Y0145911D02*
X0214494Y0145911D01*
X0213923Y0147509D02*
X0112744Y0147509D01*
X0113026Y0149108D02*
X0213641Y0149108D01*
X0213484Y0150000D02*
X0213484Y0150000D01*
X0213608Y0150706D02*
X0113058Y0150706D01*
X0113183Y0150000D02*
X0113183Y0150000D01*
X0112777Y0152305D02*
X0213890Y0152305D01*
X0214386Y0153903D02*
X0112280Y0153903D01*
X0112589Y0153369D02*
X0112589Y0153369D01*
X0111357Y0155502D02*
X0215309Y0155502D01*
X0215788Y0156331D02*
X0215788Y0156331D01*
X0215788Y0156331D01*
X0216705Y0157100D02*
X0109962Y0157100D01*
X0108258Y0158530D02*
X0108258Y0158530D01*
X0107795Y0158699D02*
X0218872Y0158699D01*
X0245933Y0161896D02*
X0090733Y0161896D01*
X0090733Y0131524D02*
X0161180Y0131524D01*
X0160094Y0129926D02*
X0090733Y0129926D01*
X0102598Y0128327D02*
X0112100Y0128327D01*
X0112426Y0128654D02*
X0111255Y0127482D01*
X0111255Y0117951D01*
X0112426Y0116780D01*
X0123926Y0116780D01*
X0125097Y0117951D01*
X0125097Y0127482D01*
X0123926Y0128654D01*
X0112426Y0128654D01*
X0111255Y0126729D02*
X0103444Y0126729D01*
X0103444Y0125130D02*
X0111255Y0125130D01*
X0111255Y0123532D02*
X0103444Y0123532D01*
X0103444Y0121933D02*
X0111255Y0121933D01*
X0111255Y0120334D02*
X0103444Y0120334D01*
X0103444Y0118736D02*
X0111255Y0118736D01*
X0112068Y0117137D02*
X0109797Y0117137D01*
X0111638Y0115539D02*
X0129912Y0115539D01*
X0131511Y0117137D02*
X0124283Y0117137D01*
X0125097Y0118736D02*
X0133110Y0118736D01*
X0134708Y0120334D02*
X0125097Y0120334D01*
X0125097Y0121933D02*
X0136307Y0121933D01*
X0138333Y0120000D02*
X0129633Y0111299D01*
X0118176Y0111299D01*
X0111255Y0110743D02*
X0110749Y0110743D01*
X0111255Y0109145D02*
X0090733Y0109145D01*
X0090733Y0110743D02*
X0105917Y0110743D01*
X0104797Y0112342D02*
X0090733Y0112342D01*
X0090733Y0113940D02*
X0104562Y0113940D01*
X0105029Y0115539D02*
X0090733Y0115539D01*
X0102630Y0117137D02*
X0106870Y0117137D01*
X0125097Y0123532D02*
X0138853Y0123532D01*
X0139611Y0125130D02*
X0125097Y0125130D01*
X0125097Y0126729D02*
X0156897Y0126729D01*
X0158495Y0128327D02*
X0124252Y0128327D01*
X0138333Y0120000D02*
X0142822Y0120000D01*
X0146790Y0120334D02*
X0149877Y0120334D01*
X0149877Y0118736D02*
X0146790Y0118736D01*
X0146790Y0117137D02*
X0149877Y0117137D01*
X0149966Y0115539D02*
X0146701Y0115539D01*
X0146300Y0112342D02*
X0155533Y0112342D01*
X0155533Y0113940D02*
X0136234Y0113940D01*
X0134635Y0112342D02*
X0140367Y0112342D01*
X0139365Y0110743D02*
X0133037Y0110743D01*
X0131438Y0109145D02*
X0139365Y0109145D01*
X0139365Y0107546D02*
X0129464Y0107546D01*
X0131062Y0105948D02*
X0139365Y0105948D01*
X0139643Y0104349D02*
X0132661Y0104349D01*
X0134259Y0102751D02*
X0139565Y0102751D01*
X0139565Y0101152D02*
X0135670Y0101152D01*
X0135933Y0099554D02*
X0139565Y0099554D01*
X0140420Y0097955D02*
X0135933Y0097955D01*
X0135933Y0096357D02*
X0153384Y0096357D01*
X0153384Y0097481D02*
X0153384Y0094279D01*
X0157558Y0094279D01*
X0157558Y0092729D01*
X0153384Y0092729D01*
X0153384Y0089527D01*
X0153506Y0089069D01*
X0153743Y0088659D01*
X0154078Y0088323D01*
X0154489Y0088086D01*
X0154947Y0087964D01*
X0157559Y0087964D01*
X0157559Y0092729D01*
X0159108Y0092729D01*
X0159108Y0087964D01*
X0161720Y0087964D01*
X0162178Y0088086D01*
X0162588Y0088323D01*
X0162923Y0088659D01*
X0163160Y0089069D01*
X0163283Y0089527D01*
X0163283Y0092729D01*
X0159108Y0092729D01*
X0159108Y0094279D01*
X0157559Y0094279D01*
X0157559Y0099044D01*
X0154947Y0099044D01*
X0154489Y0098921D01*
X0154078Y0098684D01*
X0153743Y0098349D01*
X0153506Y0097939D01*
X0153384Y0097481D01*
X0153516Y0097955D02*
X0146247Y0097955D01*
X0147102Y0099554D02*
X0164711Y0099554D01*
X0164565Y0097955D02*
X0163151Y0097955D01*
X0163160Y0097939D02*
X0162923Y0098349D01*
X0162588Y0098684D01*
X0162178Y0098921D01*
X0161720Y0099044D01*
X0159108Y0099044D01*
X0159108Y0094279D01*
X0163283Y0094279D01*
X0163283Y0097481D01*
X0163160Y0097939D01*
X0163283Y0096357D02*
X0164565Y0096357D01*
X0164565Y0094758D02*
X0163283Y0094758D01*
X0165148Y0093160D02*
X0159108Y0093160D01*
X0157558Y0093160D02*
X0135933Y0093160D01*
X0135933Y0094758D02*
X0153384Y0094758D01*
X0157559Y0094758D02*
X0159108Y0094758D01*
X0159108Y0096357D02*
X0157559Y0096357D01*
X0157559Y0097955D02*
X0159108Y0097955D01*
X0162708Y0101152D02*
X0164365Y0101152D01*
X0164365Y0102751D02*
X0163483Y0102751D01*
X0163483Y0104349D02*
X0164365Y0104349D01*
X0164365Y0105948D02*
X0163483Y0105948D01*
X0163483Y0107546D02*
X0165733Y0107546D01*
X0165733Y0109145D02*
X0163483Y0109145D01*
X0163483Y0110743D02*
X0165733Y0110743D01*
X0165335Y0112342D02*
X0161133Y0112342D01*
X0161133Y0113940D02*
X0164443Y0113940D01*
X0164333Y0115539D02*
X0161133Y0115539D01*
X0160667Y0117137D02*
X0164889Y0117137D01*
X0166900Y0118736D02*
X0159069Y0118736D01*
X0157857Y0120334D02*
X0174322Y0120334D01*
X0170743Y0121933D02*
X0159455Y0121933D01*
X0161054Y0123532D02*
X0169612Y0123532D01*
X0169333Y0125130D02*
X0162652Y0125130D01*
X0164251Y0126729D02*
X0169720Y0126729D01*
X0158333Y0115512D02*
X0153845Y0120000D01*
X0149877Y0121933D02*
X0146790Y0121933D01*
X0146790Y0123532D02*
X0149877Y0123532D01*
X0150635Y0125130D02*
X0146032Y0125130D01*
X0138942Y0115539D02*
X0137832Y0115539D01*
X0143333Y0108346D02*
X0156483Y0108346D01*
X0158333Y0106496D01*
X0158333Y0115512D01*
X0171332Y0112342D02*
X0175018Y0112342D01*
X0174333Y0110743D02*
X0170933Y0110743D01*
X0170933Y0109145D02*
X0174358Y0109145D01*
X0175833Y0102500D02*
X0176014Y0102502D01*
X0176195Y0102509D01*
X0176376Y0102520D01*
X0176557Y0102535D01*
X0176737Y0102555D01*
X0176917Y0102579D01*
X0177096Y0102607D01*
X0177274Y0102640D01*
X0177451Y0102677D01*
X0177628Y0102718D01*
X0177803Y0102763D01*
X0177978Y0102813D01*
X0178151Y0102867D01*
X0178322Y0102925D01*
X0178493Y0102987D01*
X0178661Y0103054D01*
X0178828Y0103124D01*
X0178994Y0103198D01*
X0179157Y0103277D01*
X0179318Y0103359D01*
X0179478Y0103445D01*
X0179635Y0103535D01*
X0179790Y0103629D01*
X0179943Y0103726D01*
X0180093Y0103828D01*
X0180241Y0103932D01*
X0180387Y0104041D01*
X0180529Y0104152D01*
X0180669Y0104268D01*
X0180806Y0104386D01*
X0180941Y0104508D01*
X0181072Y0104633D01*
X0181200Y0104761D01*
X0181325Y0104892D01*
X0181447Y0105027D01*
X0181565Y0105164D01*
X0181681Y0105304D01*
X0181792Y0105446D01*
X0181901Y0105592D01*
X0182005Y0105740D01*
X0182107Y0105890D01*
X0182204Y0106043D01*
X0182298Y0106198D01*
X0182388Y0106355D01*
X0182474Y0106515D01*
X0182556Y0106676D01*
X0182635Y0106839D01*
X0182709Y0107005D01*
X0182779Y0107172D01*
X0182846Y0107340D01*
X0182908Y0107511D01*
X0182966Y0107682D01*
X0183020Y0107855D01*
X0183070Y0108030D01*
X0183115Y0108205D01*
X0183156Y0108382D01*
X0183193Y0108559D01*
X0183226Y0108737D01*
X0183254Y0108916D01*
X0183278Y0109096D01*
X0183298Y0109276D01*
X0183313Y0109457D01*
X0183324Y0109638D01*
X0183331Y0109819D01*
X0183333Y0110000D01*
X0183533Y0110743D02*
X0182754Y0110743D01*
X0182309Y0109145D02*
X0183733Y0109145D01*
X0184583Y0108750D02*
X0187783Y0108750D01*
X0184583Y0108750D02*
X0184515Y0108752D01*
X0184448Y0108757D01*
X0184381Y0108766D01*
X0184314Y0108779D01*
X0184249Y0108796D01*
X0184184Y0108815D01*
X0184120Y0108839D01*
X0184058Y0108866D01*
X0183997Y0108896D01*
X0183939Y0108929D01*
X0183882Y0108965D01*
X0183827Y0109005D01*
X0183774Y0109047D01*
X0183723Y0109093D01*
X0183676Y0109140D01*
X0183630Y0109191D01*
X0183588Y0109244D01*
X0183548Y0109299D01*
X0183512Y0109356D01*
X0183479Y0109414D01*
X0183449Y0109475D01*
X0183422Y0109537D01*
X0183398Y0109601D01*
X0183379Y0109666D01*
X0183362Y0109731D01*
X0183349Y0109798D01*
X0183340Y0109865D01*
X0183335Y0109932D01*
X0183333Y0110000D01*
X0183533Y0107546D02*
X0181537Y0107546D01*
X0183533Y0105948D02*
X0172302Y0105948D01*
X0172302Y0104349D02*
X0183533Y0104349D01*
X0182407Y0102751D02*
X0172302Y0102751D01*
X0172302Y0101152D02*
X0180809Y0101152D01*
X0179210Y0099554D02*
X0171956Y0099554D01*
X0172102Y0097955D02*
X0177612Y0097955D01*
X0176081Y0096357D02*
X0172102Y0096357D01*
X0172102Y0094758D02*
X0175733Y0094758D01*
X0175733Y0093160D02*
X0171519Y0093160D01*
X0168518Y0093160D02*
X0168149Y0093160D01*
X0168149Y0094758D02*
X0168518Y0094758D01*
X0168518Y0096357D02*
X0168149Y0096357D01*
X0163283Y0091561D02*
X0174650Y0091561D01*
X0174333Y0089963D02*
X0163283Y0089963D01*
X0162629Y0088364D02*
X0174681Y0088364D01*
X0175911Y0086766D02*
X0135933Y0086766D01*
X0135933Y0088364D02*
X0154038Y0088364D01*
X0153384Y0089963D02*
X0135933Y0089963D01*
X0135933Y0091561D02*
X0153384Y0091561D01*
X0157559Y0091561D02*
X0159108Y0091561D01*
X0159108Y0089963D02*
X0157559Y0089963D01*
X0157559Y0088364D02*
X0159108Y0088364D01*
X0160073Y0083569D02*
X0167030Y0083569D01*
X0169881Y0080000D02*
X0156680Y0080000D01*
X0153286Y0083569D02*
X0152981Y0083569D01*
X0150171Y0083569D02*
X0149803Y0083569D01*
X0149803Y0081970D02*
X0150171Y0081970D01*
X0150171Y0080372D02*
X0149803Y0080372D01*
X0149803Y0078773D02*
X0150171Y0078773D01*
X0150171Y0077175D02*
X0149803Y0077175D01*
X0146238Y0077175D02*
X0139836Y0077175D01*
X0138237Y0078773D02*
X0146022Y0078773D01*
X0146022Y0080372D02*
X0136639Y0080372D01*
X0135933Y0081970D02*
X0146022Y0081970D01*
X0146993Y0083569D02*
X0135933Y0083569D01*
X0135933Y0085167D02*
X0184824Y0085167D01*
X0185733Y0086766D02*
X0180756Y0086766D01*
X0181985Y0088364D02*
X0185733Y0088364D01*
X0185733Y0089963D02*
X0182333Y0089963D01*
X0182016Y0091561D02*
X0185733Y0091561D01*
X0185733Y0093160D02*
X0180933Y0093160D01*
X0181769Y0094758D02*
X0185733Y0094758D01*
X0184348Y0096357D02*
X0183367Y0096357D01*
X0202083Y0106250D02*
X0208883Y0106250D01*
X0208883Y0103750D01*
X0213133Y0102751D02*
X0213233Y0102751D01*
X0213233Y0101152D02*
X0213133Y0101152D01*
X0213133Y0099554D02*
X0213233Y0099554D01*
X0213233Y0097955D02*
X0213133Y0097955D01*
X0213233Y0096357D02*
X0212319Y0096357D01*
X0219516Y0091561D02*
X0223233Y0091561D01*
X0223233Y0089963D02*
X0219833Y0089963D01*
X0219485Y0088364D02*
X0223233Y0088364D01*
X0222375Y0086766D02*
X0218256Y0086766D01*
X0205733Y0081970D02*
X0195933Y0081970D01*
X0195933Y0080372D02*
X0205733Y0080372D01*
X0205733Y0078773D02*
X0195639Y0078773D01*
X0194185Y0077175D02*
X0205733Y0077175D01*
X0183225Y0083569D02*
X0179637Y0083569D01*
X0173935Y0083569D02*
X0172731Y0083569D01*
X0166298Y0077175D02*
X0160817Y0077175D01*
X0138671Y0065985D02*
X0113009Y0065985D01*
X0113183Y0065000D02*
X0112589Y0068369D01*
X0110879Y0071331D01*
X0110879Y0071331D01*
X0108258Y0073530D01*
X0105044Y0074700D01*
X0101623Y0074700D01*
X0098409Y0073530D01*
X0098409Y0073530D01*
X0095788Y0071331D01*
X0094078Y0068369D01*
X0094078Y0068369D01*
X0093484Y0065000D01*
X0094078Y0061631D01*
X0095788Y0058669D01*
X0095788Y0058669D01*
X0098409Y0056470D01*
X0101623Y0055300D01*
X0102856Y0055300D01*
X0105044Y0055300D01*
X0108258Y0056470D01*
X0108258Y0056470D01*
X0110879Y0058669D01*
X0112589Y0061631D01*
X0113183Y0065000D01*
X0113075Y0064387D02*
X0140270Y0064387D01*
X0141879Y0062788D02*
X0112793Y0062788D01*
X0112589Y0061631D02*
X0112589Y0061631D01*
X0112334Y0061190D02*
X0166022Y0061190D01*
X0166022Y0059591D02*
X0111411Y0059591D01*
X0110073Y0057993D02*
X0166022Y0057993D01*
X0167058Y0056394D02*
X0108050Y0056394D01*
X0098617Y0056394D02*
X0090733Y0056394D01*
X0090733Y0054796D02*
X0245933Y0054796D01*
X0245933Y0053197D02*
X0090733Y0053197D01*
X0098409Y0056470D02*
X0098409Y0056470D01*
X0096594Y0057993D02*
X0090733Y0057993D01*
X0090733Y0059591D02*
X0095256Y0059591D01*
X0094333Y0061190D02*
X0090733Y0061190D01*
X0090733Y0062788D02*
X0093874Y0062788D01*
X0094078Y0061631D02*
X0094078Y0061631D01*
X0093592Y0064387D02*
X0090733Y0064387D01*
X0090733Y0065985D02*
X0093657Y0065985D01*
X0093484Y0065000D02*
X0093484Y0065000D01*
X0093939Y0067584D02*
X0090733Y0067584D01*
X0090733Y0069182D02*
X0094547Y0069182D01*
X0095470Y0070781D02*
X0090733Y0070781D01*
X0090733Y0072379D02*
X0097037Y0072379D01*
X0095788Y0071331D02*
X0095788Y0071331D01*
X0095788Y0071331D01*
X0099638Y0073978D02*
X0090733Y0073978D01*
X0090733Y0075576D02*
X0129080Y0075576D01*
X0127482Y0077175D02*
X0090733Y0077175D01*
X0090733Y0078773D02*
X0126027Y0078773D01*
X0125733Y0080372D02*
X0090733Y0080372D01*
X0102896Y0081970D02*
X0111802Y0081970D01*
X0111255Y0082518D02*
X0112426Y0081346D01*
X0123926Y0081346D01*
X0125097Y0082518D01*
X0125097Y0092049D01*
X0123926Y0093220D01*
X0112426Y0093220D01*
X0111255Y0092049D01*
X0111255Y0082518D01*
X0111255Y0083569D02*
X0103444Y0083569D01*
X0103444Y0085167D02*
X0111255Y0085167D01*
X0111255Y0086766D02*
X0103444Y0086766D01*
X0103444Y0088364D02*
X0111255Y0088364D01*
X0111255Y0089963D02*
X0103444Y0089963D01*
X0103444Y0091561D02*
X0111255Y0091561D01*
X0110470Y0093141D02*
X0109084Y0092567D01*
X0107583Y0092567D01*
X0106197Y0093141D01*
X0105136Y0094202D01*
X0104562Y0095588D01*
X0104562Y0097089D01*
X0105136Y0098475D01*
X0106197Y0099536D01*
X0107583Y0100110D01*
X0109084Y0100110D01*
X0110470Y0099536D01*
X0111455Y0098551D01*
X0111455Y0098701D01*
X0118176Y0098701D01*
X0118176Y0098701D01*
X0118176Y0095917D01*
X0113018Y0095917D01*
X0112560Y0096039D01*
X0112149Y0096276D01*
X0112105Y0096321D01*
X0112105Y0095588D01*
X0111531Y0094202D01*
X0110470Y0093141D01*
X0110488Y0093160D02*
X0112366Y0093160D01*
X0111761Y0094758D02*
X0125733Y0094758D01*
X0125733Y0093160D02*
X0123986Y0093160D01*
X0125097Y0091561D02*
X0125733Y0091561D01*
X0125733Y0089963D02*
X0125097Y0089963D01*
X0125097Y0088364D02*
X0125733Y0088364D01*
X0125733Y0086766D02*
X0125097Y0086766D01*
X0125097Y0085167D02*
X0125733Y0085167D01*
X0125733Y0083569D02*
X0125097Y0083569D01*
X0124549Y0081970D02*
X0125733Y0081970D01*
X0130679Y0073978D02*
X0107028Y0073978D01*
X0108258Y0073530D02*
X0108258Y0073530D01*
X0109630Y0072379D02*
X0132277Y0072379D01*
X0133876Y0070781D02*
X0111196Y0070781D01*
X0112119Y0069182D02*
X0135474Y0069182D01*
X0137073Y0067584D02*
X0112727Y0067584D01*
X0112589Y0068369D02*
X0112589Y0068369D01*
X0169803Y0059591D02*
X0170171Y0059591D01*
X0170171Y0057993D02*
X0169803Y0057993D01*
X0169803Y0056394D02*
X0170171Y0056394D01*
X0172916Y0056394D02*
X0173323Y0056394D01*
X0180036Y0056394D02*
X0187112Y0056394D01*
X0192649Y0056394D02*
X0194018Y0056394D01*
X0189881Y0060000D02*
X0176680Y0060000D01*
X0243133Y0075576D02*
X0243533Y0075576D01*
X0243533Y0077175D02*
X0243133Y0077175D01*
X0243133Y0078773D02*
X0243533Y0078773D01*
X0202083Y0106250D02*
X0192083Y0116250D01*
X0187783Y0116250D01*
X0175130Y0107546D02*
X0170933Y0107546D01*
X0153184Y0104349D02*
X0147023Y0104349D01*
X0147102Y0102751D02*
X0153184Y0102751D01*
X0153959Y0101152D02*
X0147102Y0101152D01*
X0143518Y0101152D02*
X0143149Y0101152D01*
X0143149Y0099554D02*
X0143518Y0099554D01*
X0143518Y0097955D02*
X0143149Y0097955D01*
X0125733Y0097955D02*
X0124897Y0097955D01*
X0124897Y0099554D02*
X0125103Y0099554D01*
X0125733Y0096357D02*
X0124283Y0096357D01*
X0118176Y0096357D02*
X0118176Y0096357D01*
X0118176Y0097955D02*
X0118176Y0097955D01*
X0111455Y0099554D02*
X0110427Y0099554D01*
X0111255Y0101152D02*
X0090733Y0101152D01*
X0090733Y0099554D02*
X0106240Y0099554D01*
X0104921Y0097955D02*
X0090733Y0097955D01*
X0090733Y0096357D02*
X0104562Y0096357D01*
X0104905Y0094758D02*
X0090733Y0094758D01*
X0102333Y0093160D02*
X0106178Y0093160D01*
X0111255Y0102751D02*
X0090733Y0102751D01*
X0090733Y0104349D02*
X0111255Y0104349D01*
X0111255Y0105948D02*
X0090733Y0105948D01*
X0090733Y0107546D02*
X0111255Y0107546D01*
X0223971Y0115539D02*
X0239733Y0115539D01*
X0239213Y0113940D02*
X0225570Y0113940D01*
X0227168Y0112342D02*
X0237193Y0112342D01*
X0235400Y0110743D02*
X0228340Y0110743D01*
X0228433Y0109145D02*
X0233801Y0109145D01*
D23*
X0218333Y0110000D03*
X0178333Y0110000D03*
X0168333Y0115000D03*
X0173333Y0125000D03*
X0175833Y0102500D03*
X0148333Y0095000D03*
X0178333Y0090000D03*
X0203333Y0085000D03*
X0215833Y0090000D03*
X0233333Y0080000D03*
X0238333Y0070000D03*
X0128333Y0070000D03*
D24*
X0188333Y0150000D03*
M02*
