G75*
%MOIN*%
%OFA0B0*%
%FSLAX25Y25*%
%IPPOS*%
%LPD*%
%AMOC8*
5,1,8,0,0,1.08239X$1,22.5*
%
%ADD10C,0.07400*%
%ADD11C,0.04000*%
%ADD12C,0.01600*%
%ADD13C,0.01200*%
%ADD14C,0.04362*%
D10*
X0243333Y0080000D03*
X0243333Y0090000D03*
X0243333Y0100000D03*
X0243333Y0110000D03*
X0243333Y0120000D03*
X0243333Y0130000D03*
X0243333Y0140000D03*
D11*
X0173333Y0125000D03*
X0168333Y0115000D03*
X0178333Y0110000D03*
X0175833Y0102500D03*
X0148333Y0095000D03*
X0178333Y0090000D03*
X0203333Y0085000D03*
X0215833Y0090000D03*
X0233333Y0080000D03*
X0238333Y0070000D03*
X0218333Y0110000D03*
X0128333Y0070000D03*
D12*
X0090333Y0052000D02*
X0090333Y0162961D01*
X0246333Y0163000D01*
X0246333Y0144494D01*
X0244388Y0145300D01*
X0242279Y0145300D01*
X0240331Y0144493D01*
X0238840Y0143002D01*
X0238033Y0141054D01*
X0238033Y0138946D01*
X0238840Y0136998D01*
X0240331Y0135507D01*
X0241555Y0135000D01*
X0240331Y0134493D01*
X0238840Y0133002D01*
X0238674Y0132600D01*
X0167816Y0132600D01*
X0167333Y0132400D01*
X0162856Y0132400D01*
X0161974Y0132035D01*
X0156974Y0127035D01*
X0156299Y0126359D01*
X0155933Y0125477D01*
X0155933Y0114523D01*
X0156299Y0113641D01*
X0161299Y0108641D01*
X0161974Y0107965D01*
X0162856Y0107600D01*
X0175359Y0107600D01*
X0176181Y0106779D01*
X0177577Y0106200D01*
X0179089Y0106200D01*
X0180486Y0106779D01*
X0181555Y0107847D01*
X0182133Y0109244D01*
X0182133Y0110756D01*
X0181555Y0112153D01*
X0181307Y0112400D01*
X0227256Y0112400D01*
X0238200Y0101456D01*
X0238033Y0101054D01*
X0238033Y0098946D01*
X0238840Y0096998D01*
X0240331Y0095507D01*
X0241555Y0095000D01*
X0240331Y0094493D01*
X0238840Y0093002D01*
X0238591Y0092400D01*
X0218807Y0092400D01*
X0217986Y0093221D01*
X0216589Y0093800D01*
X0215077Y0093800D01*
X0213681Y0093221D01*
X0212612Y0092153D01*
X0212033Y0090756D01*
X0212033Y0089244D01*
X0212612Y0087847D01*
X0213681Y0086779D01*
X0215077Y0086200D01*
X0216589Y0086200D01*
X0217986Y0086779D01*
X0218807Y0087600D01*
X0238591Y0087600D01*
X0238840Y0086998D01*
X0240331Y0085507D01*
X0241277Y0085115D01*
X0241222Y0085097D01*
X0240451Y0084704D01*
X0239750Y0084195D01*
X0239138Y0083583D01*
X0238629Y0082883D01*
X0238236Y0082111D01*
X0237969Y0081288D01*
X0237833Y0080433D01*
X0237833Y0080200D01*
X0243133Y0080200D01*
X0243133Y0079800D01*
X0237833Y0079800D01*
X0237833Y0079567D01*
X0237969Y0078712D01*
X0238236Y0077889D01*
X0238629Y0077117D01*
X0239138Y0076417D01*
X0239750Y0075805D01*
X0240451Y0075296D01*
X0241222Y0074903D01*
X0242045Y0074635D01*
X0242900Y0074500D01*
X0243133Y0074500D01*
X0243133Y0079800D01*
X0243533Y0079800D01*
X0243533Y0074500D01*
X0243766Y0074500D01*
X0244621Y0074635D01*
X0245445Y0074903D01*
X0246216Y0075296D01*
X0246333Y0075381D01*
X0246333Y0052000D01*
X0090333Y0052000D01*
X0090333Y0053197D02*
X0246333Y0053197D01*
X0246333Y0054796D02*
X0090333Y0054796D01*
X0090333Y0056394D02*
X0246333Y0056394D01*
X0246333Y0057993D02*
X0228347Y0057993D01*
X0228148Y0057794D02*
X0230539Y0060185D01*
X0231833Y0063309D01*
X0231833Y0066691D01*
X0230539Y0069815D01*
X0228148Y0072206D01*
X0227197Y0072600D01*
X0228811Y0072600D01*
X0229693Y0072965D01*
X0230368Y0073641D01*
X0232927Y0076200D01*
X0234089Y0076200D01*
X0235486Y0076779D01*
X0236555Y0077847D01*
X0237133Y0079244D01*
X0237133Y0080756D01*
X0236555Y0082153D01*
X0235486Y0083221D01*
X0234089Y0083800D01*
X0232577Y0083800D01*
X0231181Y0083221D01*
X0230112Y0082153D01*
X0229533Y0080756D01*
X0229533Y0079594D01*
X0227339Y0077400D01*
X0194327Y0077400D01*
X0182133Y0089594D01*
X0182133Y0090756D01*
X0181555Y0092153D01*
X0180486Y0093221D01*
X0179089Y0093800D01*
X0177577Y0093800D01*
X0176181Y0093221D01*
X0175112Y0092153D01*
X0174533Y0090756D01*
X0174533Y0089244D01*
X0175112Y0087847D01*
X0176181Y0086779D01*
X0177577Y0086200D01*
X0178739Y0086200D01*
X0191974Y0072965D01*
X0192856Y0072600D01*
X0219470Y0072600D01*
X0218518Y0072206D01*
X0216127Y0069815D01*
X0216127Y0069815D01*
X0214833Y0066691D01*
X0214833Y0063309D01*
X0216127Y0060185D01*
X0218518Y0057794D01*
X0218518Y0057794D01*
X0221643Y0056500D01*
X0222836Y0056500D01*
X0225024Y0056500D01*
X0228148Y0057794D01*
X0228148Y0057794D01*
X0229945Y0059591D02*
X0246333Y0059591D01*
X0246333Y0061190D02*
X0230955Y0061190D01*
X0230539Y0060185D02*
X0230539Y0060185D01*
X0231617Y0062788D02*
X0246333Y0062788D01*
X0246333Y0064387D02*
X0231833Y0064387D01*
X0231833Y0065985D02*
X0246333Y0065985D01*
X0246333Y0067584D02*
X0231463Y0067584D01*
X0230801Y0069182D02*
X0246333Y0069182D01*
X0246333Y0070781D02*
X0229573Y0070781D01*
X0230539Y0069815D02*
X0230539Y0069815D01*
X0228148Y0072206D02*
X0228148Y0072206D01*
X0227730Y0072379D02*
X0246333Y0072379D01*
X0246333Y0073978D02*
X0230705Y0073978D01*
X0232304Y0075576D02*
X0240065Y0075576D01*
X0238600Y0077175D02*
X0235882Y0077175D01*
X0236938Y0078773D02*
X0237959Y0078773D01*
X0237833Y0080372D02*
X0237133Y0080372D01*
X0236630Y0081970D02*
X0238190Y0081970D01*
X0239128Y0083569D02*
X0234647Y0083569D01*
X0232019Y0083569D02*
X0188159Y0083569D01*
X0189757Y0081970D02*
X0230036Y0081970D01*
X0229533Y0080372D02*
X0191356Y0080372D01*
X0192954Y0078773D02*
X0228712Y0078773D01*
X0218937Y0072379D02*
X0107730Y0072379D01*
X0108148Y0072206D02*
X0105024Y0073500D01*
X0101643Y0073500D01*
X0098518Y0072206D01*
X0096127Y0069815D01*
X0096127Y0069815D01*
X0094833Y0066691D01*
X0094833Y0063309D01*
X0096127Y0060185D01*
X0098518Y0057794D01*
X0098518Y0057794D01*
X0101643Y0056500D01*
X0103830Y0056500D01*
X0105024Y0056500D01*
X0105024Y0056500D01*
X0108148Y0057794D01*
X0108148Y0057794D01*
X0110539Y0060185D01*
X0111833Y0063309D01*
X0111833Y0066691D01*
X0110539Y0069815D01*
X0108148Y0072206D01*
X0108148Y0072206D01*
X0109573Y0070781D02*
X0217093Y0070781D01*
X0218518Y0072206D02*
X0218518Y0072206D01*
X0215865Y0069182D02*
X0110801Y0069182D01*
X0110539Y0069815D02*
X0110539Y0069815D01*
X0111463Y0067584D02*
X0215203Y0067584D01*
X0214833Y0065985D02*
X0111833Y0065985D01*
X0111833Y0064387D02*
X0214833Y0064387D01*
X0215049Y0062788D02*
X0111617Y0062788D01*
X0110955Y0061190D02*
X0215711Y0061190D01*
X0216127Y0060185D02*
X0216127Y0060185D01*
X0216721Y0059591D02*
X0109945Y0059591D01*
X0110539Y0060185D02*
X0110539Y0060185D01*
X0108347Y0057993D02*
X0218320Y0057993D01*
X0243133Y0075576D02*
X0243533Y0075576D01*
X0243533Y0077175D02*
X0243133Y0077175D01*
X0243133Y0078773D02*
X0243533Y0078773D01*
X0241151Y0085167D02*
X0186560Y0085167D01*
X0184962Y0086766D02*
X0213712Y0086766D01*
X0212398Y0088364D02*
X0183363Y0088364D01*
X0182133Y0089963D02*
X0212033Y0089963D01*
X0212367Y0091561D02*
X0181800Y0091561D01*
X0180548Y0093160D02*
X0213619Y0093160D01*
X0218048Y0093160D02*
X0238998Y0093160D01*
X0240971Y0094758D02*
X0111328Y0094758D01*
X0111192Y0094429D02*
X0111705Y0095668D01*
X0111705Y0097009D01*
X0111192Y0098248D01*
X0110243Y0099197D01*
X0109004Y0099710D01*
X0107663Y0099710D01*
X0106423Y0099197D01*
X0105475Y0098248D01*
X0104962Y0097009D01*
X0104962Y0095668D01*
X0105475Y0094429D01*
X0106423Y0093480D01*
X0107663Y0092967D01*
X0109004Y0092967D01*
X0110243Y0093480D01*
X0111192Y0094429D01*
X0109470Y0093160D02*
X0176119Y0093160D01*
X0174867Y0091561D02*
X0090333Y0091561D01*
X0090333Y0089963D02*
X0174533Y0089963D01*
X0174898Y0088364D02*
X0090333Y0088364D01*
X0090333Y0086766D02*
X0176212Y0086766D01*
X0179772Y0085167D02*
X0090333Y0085167D01*
X0090333Y0083569D02*
X0181370Y0083569D01*
X0182969Y0081970D02*
X0090333Y0081970D01*
X0090333Y0080372D02*
X0184567Y0080372D01*
X0186166Y0078773D02*
X0090333Y0078773D01*
X0090333Y0077175D02*
X0187765Y0077175D01*
X0189363Y0075576D02*
X0090333Y0075576D01*
X0090333Y0073978D02*
X0190962Y0073978D01*
X0217955Y0086766D02*
X0239072Y0086766D01*
X0239481Y0096357D02*
X0111705Y0096357D01*
X0111313Y0097955D02*
X0238444Y0097955D01*
X0238033Y0099554D02*
X0109382Y0099554D01*
X0107285Y0099554D02*
X0090333Y0099554D01*
X0090333Y0101152D02*
X0238074Y0101152D01*
X0236906Y0102751D02*
X0090333Y0102751D01*
X0090333Y0104349D02*
X0235307Y0104349D01*
X0233708Y0105948D02*
X0090333Y0105948D01*
X0090333Y0107546D02*
X0175413Y0107546D01*
X0181254Y0107546D02*
X0232110Y0107546D01*
X0230511Y0109145D02*
X0182092Y0109145D01*
X0182133Y0110743D02*
X0228913Y0110743D01*
X0227314Y0112342D02*
X0181365Y0112342D01*
X0168333Y0115000D02*
X0228333Y0115000D01*
X0243333Y0100000D01*
X0243333Y0130000D02*
X0168333Y0130000D01*
X0161463Y0131524D02*
X0090333Y0131524D01*
X0090333Y0129926D02*
X0159865Y0129926D01*
X0158266Y0128327D02*
X0090333Y0128327D01*
X0090333Y0126729D02*
X0156668Y0126729D01*
X0155933Y0125130D02*
X0090333Y0125130D01*
X0090333Y0123532D02*
X0155933Y0123532D01*
X0155933Y0121933D02*
X0090333Y0121933D01*
X0090333Y0120334D02*
X0155933Y0120334D01*
X0155933Y0118736D02*
X0090333Y0118736D01*
X0090333Y0117137D02*
X0155933Y0117137D01*
X0155933Y0115539D02*
X0111205Y0115539D01*
X0111192Y0115571D02*
X0110243Y0116520D01*
X0109004Y0117033D01*
X0107663Y0117033D01*
X0106423Y0116520D01*
X0105475Y0115571D01*
X0104962Y0114332D01*
X0104962Y0112991D01*
X0105475Y0111752D01*
X0106423Y0110803D01*
X0107663Y0110290D01*
X0109004Y0110290D01*
X0110243Y0110803D01*
X0111192Y0111752D01*
X0111705Y0112991D01*
X0111705Y0114332D01*
X0111192Y0115571D01*
X0111705Y0113940D02*
X0156174Y0113940D01*
X0157597Y0112342D02*
X0111436Y0112342D01*
X0110099Y0110743D02*
X0159196Y0110743D01*
X0160794Y0109145D02*
X0090333Y0109145D01*
X0090333Y0110743D02*
X0106567Y0110743D01*
X0105230Y0112342D02*
X0090333Y0112342D01*
X0090333Y0113940D02*
X0104962Y0113940D01*
X0105462Y0115539D02*
X0090333Y0115539D01*
X0090333Y0133123D02*
X0238961Y0133123D01*
X0240882Y0134721D02*
X0090333Y0134721D01*
X0090333Y0136320D02*
X0239518Y0136320D01*
X0238459Y0137918D02*
X0090333Y0137918D01*
X0090333Y0139517D02*
X0238033Y0139517D01*
X0238059Y0141115D02*
X0090333Y0141115D01*
X0090333Y0142714D02*
X0098713Y0142714D01*
X0098518Y0142794D02*
X0101643Y0141500D01*
X0102836Y0141500D01*
X0105024Y0141500D01*
X0108148Y0142794D01*
X0108148Y0142794D01*
X0110539Y0145185D01*
X0111833Y0148309D01*
X0111833Y0151691D01*
X0110539Y0154815D01*
X0108148Y0157206D01*
X0105024Y0158500D01*
X0101643Y0158500D01*
X0098518Y0157206D01*
X0096127Y0154815D01*
X0096127Y0154815D01*
X0096127Y0154815D01*
X0094833Y0151691D01*
X0094833Y0148309D01*
X0096127Y0145185D01*
X0098518Y0142794D01*
X0098518Y0142794D01*
X0097000Y0144312D02*
X0090333Y0144312D01*
X0090333Y0145911D02*
X0095827Y0145911D01*
X0096127Y0145185D02*
X0096127Y0145185D01*
X0095165Y0147509D02*
X0090333Y0147509D01*
X0090333Y0149108D02*
X0094833Y0149108D01*
X0094833Y0150706D02*
X0090333Y0150706D01*
X0090333Y0152305D02*
X0095088Y0152305D01*
X0095750Y0153903D02*
X0090333Y0153903D01*
X0090333Y0155502D02*
X0096814Y0155502D01*
X0098413Y0157100D02*
X0090333Y0157100D01*
X0090333Y0158699D02*
X0246333Y0158699D01*
X0246333Y0160297D02*
X0090333Y0160297D01*
X0090333Y0161896D02*
X0246333Y0161896D01*
X0246333Y0157100D02*
X0228254Y0157100D01*
X0228148Y0157206D02*
X0225024Y0158500D01*
X0221643Y0158500D01*
X0218518Y0157206D01*
X0216127Y0154815D01*
X0216127Y0154815D01*
X0214833Y0151691D01*
X0214833Y0148309D01*
X0216127Y0145185D01*
X0218518Y0142794D01*
X0218518Y0142794D01*
X0221643Y0141500D01*
X0223830Y0141500D01*
X0225024Y0141500D01*
X0225024Y0141500D01*
X0228148Y0142794D01*
X0228148Y0142794D01*
X0230539Y0145185D01*
X0231833Y0148309D01*
X0231833Y0151691D01*
X0230539Y0154815D01*
X0228148Y0157206D01*
X0228148Y0157206D01*
X0229852Y0155502D02*
X0246333Y0155502D01*
X0246333Y0153903D02*
X0230917Y0153903D01*
X0230539Y0154815D02*
X0230539Y0154815D01*
X0231579Y0152305D02*
X0246333Y0152305D01*
X0246333Y0150706D02*
X0231833Y0150706D01*
X0231833Y0149108D02*
X0246333Y0149108D01*
X0246333Y0147509D02*
X0231502Y0147509D01*
X0230840Y0145911D02*
X0246333Y0145911D01*
X0240150Y0144312D02*
X0229666Y0144312D01*
X0230539Y0145185D02*
X0230539Y0145185D01*
X0227954Y0142714D02*
X0238721Y0142714D01*
X0218713Y0142714D02*
X0107954Y0142714D01*
X0109666Y0144312D02*
X0217000Y0144312D01*
X0216127Y0145185D02*
X0216127Y0145185D01*
X0215827Y0145911D02*
X0110840Y0145911D01*
X0110539Y0145185D02*
X0110539Y0145185D01*
X0111502Y0147509D02*
X0215165Y0147509D01*
X0214833Y0149108D02*
X0111833Y0149108D01*
X0111833Y0150706D02*
X0214833Y0150706D01*
X0215088Y0152305D02*
X0111579Y0152305D01*
X0110917Y0153903D02*
X0215750Y0153903D01*
X0216814Y0155502D02*
X0109852Y0155502D01*
X0110539Y0154815D02*
X0110539Y0154815D01*
X0108254Y0157100D02*
X0218413Y0157100D01*
X0218518Y0157206D02*
X0218518Y0157206D01*
X0108148Y0157206D02*
X0108148Y0157206D01*
X0098518Y0157206D02*
X0098518Y0157206D01*
X0105354Y0097955D02*
X0090333Y0097955D01*
X0090333Y0096357D02*
X0104962Y0096357D01*
X0105338Y0094758D02*
X0090333Y0094758D01*
X0090333Y0093160D02*
X0107197Y0093160D01*
X0098937Y0072379D02*
X0090333Y0072379D01*
X0090333Y0070781D02*
X0097093Y0070781D01*
X0098518Y0072206D02*
X0098518Y0072206D01*
X0095865Y0069182D02*
X0090333Y0069182D01*
X0090333Y0067584D02*
X0095203Y0067584D01*
X0094833Y0065985D02*
X0090333Y0065985D01*
X0090333Y0064387D02*
X0094833Y0064387D01*
X0095049Y0062788D02*
X0090333Y0062788D01*
X0090333Y0061190D02*
X0095711Y0061190D01*
X0096127Y0060185D02*
X0096127Y0060185D01*
X0096721Y0059591D02*
X0090333Y0059591D01*
X0090333Y0057993D02*
X0098320Y0057993D01*
D13*
X0178333Y0090000D02*
X0193333Y0075000D01*
X0228333Y0075000D01*
X0233333Y0080000D01*
X0243333Y0090000D02*
X0215833Y0090000D01*
X0178333Y0110000D02*
X0163333Y0110000D01*
X0158333Y0115000D01*
X0158333Y0125000D01*
X0163333Y0130000D01*
X0168333Y0130000D01*
X0173333Y0125000D02*
X0238333Y0125000D01*
X0243333Y0120000D01*
D14*
X0188333Y0150000D03*
M02*
