%
M48
M72
T01C0.02000
T02C0.02362
T03C0.03543
T04C0.04000
T05C0.13000
%
T01
X128333Y70000
X178333Y90000
X203333Y85000
X215833Y90000
X233333Y80000
X238333Y70000
X175833Y102500
X178333Y110000
X168333Y115000
X173333Y125000
X218333Y110000
X148333Y95000
T02
X188333Y150000
T03
X108333Y113661
X108333Y96339
T04
X243333Y100000
X243333Y90000
X243333Y80000
X243333Y110000
X243333Y120000
X243333Y130000
X243333Y140000
T05
X103333Y65000
X223333Y65000
X223333Y150000
X103333Y150000
M30
