G75*
%MOIN*%
%OFA0B0*%
%FSLAX25Y25*%
%IPPOS*%
%LPD*%
%AMOC8*
5,1,8,0,0,1.08239X$1,22.5*
%
%ADD10C,0.00000*%
%ADD11R,0.15354X0.15354*%
%ADD12R,0.12598X0.12598*%
%ADD13R,0.05906X0.05118*%
%ADD14R,0.08000X0.02600*%
%ADD15R,0.04724X0.04724*%
%ADD16R,0.05512X0.04331*%
%ADD17R,0.04331X0.05512*%
%ADD18C,0.01200*%
%ADD19C,0.01600*%
%ADD20C,0.03962*%
D10*
X0006800Y0006800D02*
X0006800Y0201761D01*
X0165501Y0201761D01*
X0165501Y0006800D01*
X0006800Y0006800D01*
X0012863Y0016800D02*
X0012865Y0016925D01*
X0012871Y0017050D01*
X0012881Y0017174D01*
X0012895Y0017298D01*
X0012912Y0017422D01*
X0012934Y0017545D01*
X0012960Y0017667D01*
X0012989Y0017789D01*
X0013022Y0017909D01*
X0013060Y0018028D01*
X0013100Y0018147D01*
X0013145Y0018263D01*
X0013193Y0018378D01*
X0013245Y0018492D01*
X0013301Y0018604D01*
X0013360Y0018714D01*
X0013422Y0018822D01*
X0013488Y0018929D01*
X0013557Y0019033D01*
X0013630Y0019134D01*
X0013705Y0019234D01*
X0013784Y0019331D01*
X0013866Y0019425D01*
X0013951Y0019517D01*
X0014038Y0019606D01*
X0014129Y0019692D01*
X0014222Y0019775D01*
X0014318Y0019856D01*
X0014416Y0019933D01*
X0014516Y0020007D01*
X0014619Y0020078D01*
X0014724Y0020145D01*
X0014832Y0020210D01*
X0014941Y0020270D01*
X0015052Y0020328D01*
X0015165Y0020381D01*
X0015279Y0020431D01*
X0015395Y0020478D01*
X0015512Y0020520D01*
X0015631Y0020559D01*
X0015751Y0020595D01*
X0015872Y0020626D01*
X0015994Y0020654D01*
X0016116Y0020677D01*
X0016240Y0020697D01*
X0016364Y0020713D01*
X0016488Y0020725D01*
X0016613Y0020733D01*
X0016738Y0020737D01*
X0016862Y0020737D01*
X0016987Y0020733D01*
X0017112Y0020725D01*
X0017236Y0020713D01*
X0017360Y0020697D01*
X0017484Y0020677D01*
X0017606Y0020654D01*
X0017728Y0020626D01*
X0017849Y0020595D01*
X0017969Y0020559D01*
X0018088Y0020520D01*
X0018205Y0020478D01*
X0018321Y0020431D01*
X0018435Y0020381D01*
X0018548Y0020328D01*
X0018659Y0020270D01*
X0018769Y0020210D01*
X0018876Y0020145D01*
X0018981Y0020078D01*
X0019084Y0020007D01*
X0019184Y0019933D01*
X0019282Y0019856D01*
X0019378Y0019775D01*
X0019471Y0019692D01*
X0019562Y0019606D01*
X0019649Y0019517D01*
X0019734Y0019425D01*
X0019816Y0019331D01*
X0019895Y0019234D01*
X0019970Y0019134D01*
X0020043Y0019033D01*
X0020112Y0018929D01*
X0020178Y0018822D01*
X0020240Y0018714D01*
X0020299Y0018604D01*
X0020355Y0018492D01*
X0020407Y0018378D01*
X0020455Y0018263D01*
X0020500Y0018147D01*
X0020540Y0018028D01*
X0020578Y0017909D01*
X0020611Y0017789D01*
X0020640Y0017667D01*
X0020666Y0017545D01*
X0020688Y0017422D01*
X0020705Y0017298D01*
X0020719Y0017174D01*
X0020729Y0017050D01*
X0020735Y0016925D01*
X0020737Y0016800D01*
X0020735Y0016675D01*
X0020729Y0016550D01*
X0020719Y0016426D01*
X0020705Y0016302D01*
X0020688Y0016178D01*
X0020666Y0016055D01*
X0020640Y0015933D01*
X0020611Y0015811D01*
X0020578Y0015691D01*
X0020540Y0015572D01*
X0020500Y0015453D01*
X0020455Y0015337D01*
X0020407Y0015222D01*
X0020355Y0015108D01*
X0020299Y0014996D01*
X0020240Y0014886D01*
X0020178Y0014778D01*
X0020112Y0014671D01*
X0020043Y0014567D01*
X0019970Y0014466D01*
X0019895Y0014366D01*
X0019816Y0014269D01*
X0019734Y0014175D01*
X0019649Y0014083D01*
X0019562Y0013994D01*
X0019471Y0013908D01*
X0019378Y0013825D01*
X0019282Y0013744D01*
X0019184Y0013667D01*
X0019084Y0013593D01*
X0018981Y0013522D01*
X0018876Y0013455D01*
X0018768Y0013390D01*
X0018659Y0013330D01*
X0018548Y0013272D01*
X0018435Y0013219D01*
X0018321Y0013169D01*
X0018205Y0013122D01*
X0018088Y0013080D01*
X0017969Y0013041D01*
X0017849Y0013005D01*
X0017728Y0012974D01*
X0017606Y0012946D01*
X0017484Y0012923D01*
X0017360Y0012903D01*
X0017236Y0012887D01*
X0017112Y0012875D01*
X0016987Y0012867D01*
X0016862Y0012863D01*
X0016738Y0012863D01*
X0016613Y0012867D01*
X0016488Y0012875D01*
X0016364Y0012887D01*
X0016240Y0012903D01*
X0016116Y0012923D01*
X0015994Y0012946D01*
X0015872Y0012974D01*
X0015751Y0013005D01*
X0015631Y0013041D01*
X0015512Y0013080D01*
X0015395Y0013122D01*
X0015279Y0013169D01*
X0015165Y0013219D01*
X0015052Y0013272D01*
X0014941Y0013330D01*
X0014831Y0013390D01*
X0014724Y0013455D01*
X0014619Y0013522D01*
X0014516Y0013593D01*
X0014416Y0013667D01*
X0014318Y0013744D01*
X0014222Y0013825D01*
X0014129Y0013908D01*
X0014038Y0013994D01*
X0013951Y0014083D01*
X0013866Y0014175D01*
X0013784Y0014269D01*
X0013705Y0014366D01*
X0013630Y0014466D01*
X0013557Y0014567D01*
X0013488Y0014671D01*
X0013422Y0014778D01*
X0013360Y0014886D01*
X0013301Y0014996D01*
X0013245Y0015108D01*
X0013193Y0015222D01*
X0013145Y0015337D01*
X0013100Y0015453D01*
X0013060Y0015572D01*
X0013022Y0015691D01*
X0012989Y0015811D01*
X0012960Y0015933D01*
X0012934Y0016055D01*
X0012912Y0016178D01*
X0012895Y0016302D01*
X0012881Y0016426D01*
X0012871Y0016550D01*
X0012865Y0016675D01*
X0012863Y0016800D01*
D11*
X0071800Y0046800D03*
D12*
X0104083Y0046800D03*
X0039517Y0046800D03*
D13*
X0096800Y0083454D03*
X0096800Y0090146D03*
X0116800Y0090146D03*
X0116800Y0083454D03*
D14*
X0093900Y0119300D03*
X0093900Y0124300D03*
X0093900Y0129300D03*
X0093900Y0134300D03*
X0069700Y0134300D03*
X0069700Y0129300D03*
X0069700Y0124300D03*
X0069700Y0119300D03*
D15*
X0077666Y0166800D03*
X0085934Y0166800D03*
X0137666Y0166800D03*
X0145934Y0166800D03*
D16*
X0131800Y0145737D03*
X0131800Y0137863D03*
X0131800Y0120737D03*
X0131800Y0112863D03*
D17*
X0120737Y0166800D03*
X0112863Y0166800D03*
X0065737Y0166800D03*
X0057863Y0166800D03*
D18*
X0065737Y0166800D02*
X0066200Y0167400D01*
X0077200Y0167400D01*
X0077666Y0166800D01*
X0080500Y0159700D02*
X0083800Y0159700D01*
X0086000Y0161900D01*
X0086000Y0166300D01*
X0085934Y0166800D01*
X0086000Y0167400D01*
X0112400Y0167400D01*
X0112863Y0166800D01*
X0120737Y0166800D02*
X0121200Y0167400D01*
X0136600Y0167400D01*
X0137666Y0166800D01*
X0145934Y0166800D02*
X0146500Y0166300D01*
X0146500Y0155300D01*
X0108000Y0155300D01*
X0091500Y0138800D01*
X0090400Y0139900D01*
X0064000Y0139900D01*
X0060700Y0136600D01*
X0060700Y0121200D01*
X0062900Y0119000D01*
X0069500Y0119000D01*
X0069700Y0119300D01*
X0069700Y0124300D02*
X0070600Y0124500D01*
X0077200Y0124500D01*
X0078300Y0123400D01*
X0078300Y0115700D01*
X0076100Y0113500D01*
X0064000Y0113500D01*
X0058500Y0119000D01*
X0058500Y0137700D01*
X0080500Y0159700D01*
X0091500Y0138800D02*
X0092600Y0137700D01*
X0092600Y0134400D01*
X0093700Y0133300D01*
X0093900Y0134300D01*
X0093900Y0129300D02*
X0094800Y0128900D01*
X0102500Y0128900D01*
X0126700Y0153100D01*
X0135500Y0153100D01*
X0138800Y0149800D01*
X0138800Y0139900D01*
X0136600Y0137700D01*
X0132200Y0137700D01*
X0131800Y0137863D01*
X0132200Y0137700D02*
X0132200Y0121200D01*
X0131800Y0120737D01*
X0131800Y0112863D02*
X0131100Y0112400D01*
X0131100Y0086000D01*
X0104700Y0059600D01*
X0104700Y0047500D01*
X0104083Y0046800D01*
X0103600Y0046400D01*
X0099200Y0046400D01*
X0087100Y0034300D01*
X0062900Y0034300D01*
X0050800Y0046400D01*
X0039800Y0046400D01*
X0039517Y0046800D01*
X0089300Y0079400D02*
X0089300Y0112400D01*
X0092600Y0115700D01*
X0092600Y0119000D01*
X0093700Y0120100D01*
X0093900Y0119300D01*
X0093900Y0124300D02*
X0093700Y0124500D01*
X0086000Y0124500D01*
X0081600Y0128900D01*
X0070600Y0128900D01*
X0069700Y0129300D01*
X0093900Y0124300D02*
X0111800Y0124300D01*
X0101800Y0114300D01*
X0101800Y0101800D01*
X0096800Y0096800D01*
X0096800Y0090146D01*
X0104700Y0083800D02*
X0104700Y0079400D01*
X0101400Y0076100D01*
X0092600Y0076100D01*
X0089300Y0079400D01*
X0104700Y0083800D02*
X0110200Y0089300D01*
X0116800Y0089300D01*
X0116800Y0090146D01*
X0132200Y0112400D02*
X0131800Y0112863D01*
X0132200Y0112400D02*
X0136600Y0112400D01*
X0146500Y0122300D01*
X0146500Y0155300D01*
X0131800Y0145737D02*
X0130737Y0146800D01*
X0121800Y0136800D01*
D19*
X0123942Y0133595D02*
X0125005Y0134658D01*
X0125581Y0136048D01*
X0125581Y0137429D01*
X0127244Y0139290D01*
X0127244Y0134952D01*
X0128298Y0133898D01*
X0129800Y0133898D01*
X0129800Y0124702D01*
X0128298Y0124702D01*
X0127244Y0123648D01*
X0127244Y0117826D01*
X0128270Y0116800D01*
X0127244Y0115774D01*
X0127244Y0109952D01*
X0128298Y0108898D01*
X0128700Y0108898D01*
X0128700Y0086994D01*
X0102665Y0060959D01*
X0102300Y0060077D01*
X0102300Y0054899D01*
X0097039Y0054899D01*
X0095984Y0053845D01*
X0095984Y0046578D01*
X0086106Y0036700D01*
X0063894Y0036700D01*
X0052159Y0048435D01*
X0051277Y0048800D01*
X0047616Y0048800D01*
X0047616Y0053845D01*
X0046561Y0054899D01*
X0032472Y0054899D01*
X0031417Y0053845D01*
X0031417Y0039755D01*
X0032472Y0038701D01*
X0046561Y0038701D01*
X0047616Y0039755D01*
X0047616Y0044000D01*
X0049806Y0044000D01*
X0060865Y0032941D01*
X0061541Y0032265D01*
X0062423Y0031900D01*
X0087577Y0031900D01*
X0088459Y0032265D01*
X0095984Y0039790D01*
X0095984Y0039755D01*
X0097039Y0038701D01*
X0111128Y0038701D01*
X0112183Y0039755D01*
X0112183Y0053845D01*
X0111128Y0054899D01*
X0107100Y0054899D01*
X0107100Y0058606D01*
X0132459Y0083965D01*
X0133135Y0084641D01*
X0133500Y0085523D01*
X0133500Y0108898D01*
X0135301Y0108898D01*
X0136356Y0109952D01*
X0136356Y0110000D01*
X0137077Y0110000D01*
X0137959Y0110365D01*
X0138635Y0111041D01*
X0148535Y0120941D01*
X0148900Y0121823D01*
X0148900Y0162638D01*
X0149042Y0162638D01*
X0150096Y0163692D01*
X0150096Y0169908D01*
X0149042Y0170962D01*
X0142826Y0170962D01*
X0141800Y0169936D01*
X0140774Y0170962D01*
X0134558Y0170962D01*
X0133504Y0169908D01*
X0133504Y0169800D01*
X0124702Y0169800D01*
X0124702Y0170301D01*
X0123648Y0171356D01*
X0117826Y0171356D01*
X0116800Y0170330D01*
X0115774Y0171356D01*
X0109952Y0171356D01*
X0108898Y0170301D01*
X0108898Y0169800D01*
X0090096Y0169800D01*
X0090096Y0169908D01*
X0089042Y0170962D01*
X0082826Y0170962D01*
X0081800Y0169936D01*
X0080774Y0170962D01*
X0074558Y0170962D01*
X0073504Y0169908D01*
X0073504Y0169800D01*
X0069702Y0169800D01*
X0069702Y0170301D01*
X0068648Y0171356D01*
X0062826Y0171356D01*
X0061772Y0170301D01*
X0061772Y0170004D01*
X0061706Y0170251D01*
X0061469Y0170661D01*
X0061134Y0170996D01*
X0060723Y0171233D01*
X0060265Y0171356D01*
X0058146Y0171356D01*
X0058146Y0167083D01*
X0057580Y0167083D01*
X0057580Y0171356D01*
X0055461Y0171356D01*
X0055003Y0171233D01*
X0054592Y0170996D01*
X0054257Y0170661D01*
X0054020Y0170251D01*
X0053898Y0169793D01*
X0053898Y0167083D01*
X0057580Y0167083D01*
X0057580Y0166517D01*
X0058146Y0166517D01*
X0058146Y0162244D01*
X0060265Y0162244D01*
X0060723Y0162367D01*
X0061134Y0162604D01*
X0061469Y0162939D01*
X0061706Y0163349D01*
X0061772Y0163596D01*
X0061772Y0163298D01*
X0062826Y0162244D01*
X0068648Y0162244D01*
X0069702Y0163298D01*
X0069702Y0165000D01*
X0073504Y0165000D01*
X0073504Y0163692D01*
X0074558Y0162638D01*
X0080774Y0162638D01*
X0081800Y0163664D01*
X0082826Y0162638D01*
X0083344Y0162638D01*
X0082806Y0162100D01*
X0080023Y0162100D01*
X0079141Y0161735D01*
X0078465Y0161059D01*
X0056465Y0139059D01*
X0056100Y0138177D01*
X0056100Y0118523D01*
X0056465Y0117641D01*
X0057141Y0116965D01*
X0062641Y0111465D01*
X0063523Y0111100D01*
X0076577Y0111100D01*
X0077459Y0111465D01*
X0078135Y0112141D01*
X0080335Y0114341D01*
X0080700Y0115223D01*
X0080700Y0123877D01*
X0080335Y0124759D01*
X0079659Y0125435D01*
X0078594Y0126500D01*
X0080606Y0126500D01*
X0083965Y0123141D01*
X0084641Y0122465D01*
X0085523Y0122100D01*
X0088254Y0122100D01*
X0088554Y0121800D01*
X0088100Y0121346D01*
X0088100Y0117254D01*
X0089154Y0116200D01*
X0089706Y0116200D01*
X0087265Y0113759D01*
X0086900Y0112877D01*
X0086900Y0078923D01*
X0087265Y0078041D01*
X0087941Y0077365D01*
X0091241Y0074065D01*
X0092123Y0073700D01*
X0101877Y0073700D01*
X0102759Y0074065D01*
X0103435Y0074741D01*
X0106735Y0078041D01*
X0107100Y0078923D01*
X0107100Y0082806D01*
X0111194Y0086900D01*
X0112047Y0086900D01*
X0112047Y0086842D01*
X0112174Y0086715D01*
X0112170Y0086707D01*
X0112047Y0086250D01*
X0112047Y0083933D01*
X0116320Y0083933D01*
X0116320Y0082974D01*
X0112047Y0082974D01*
X0112047Y0080658D01*
X0112170Y0080200D01*
X0112407Y0079789D01*
X0112742Y0079454D01*
X0113152Y0079217D01*
X0113610Y0079094D01*
X0116320Y0079094D01*
X0116320Y0082974D01*
X0117280Y0082974D01*
X0117280Y0083933D01*
X0121553Y0083933D01*
X0121553Y0086250D01*
X0121430Y0086707D01*
X0121426Y0086715D01*
X0121553Y0086842D01*
X0121553Y0093451D01*
X0120498Y0094505D01*
X0113102Y0094505D01*
X0112047Y0093451D01*
X0112047Y0091700D01*
X0109723Y0091700D01*
X0108841Y0091335D01*
X0103341Y0085835D01*
X0102665Y0085159D01*
X0102300Y0084277D01*
X0102300Y0080394D01*
X0100406Y0078500D01*
X0093594Y0078500D01*
X0091700Y0080394D01*
X0091700Y0111406D01*
X0093959Y0113665D01*
X0094635Y0114341D01*
X0095000Y0115223D01*
X0095000Y0116200D01*
X0098646Y0116200D01*
X0099700Y0117254D01*
X0099700Y0121346D01*
X0099246Y0121800D01*
X0099346Y0121900D01*
X0106006Y0121900D01*
X0099765Y0115659D01*
X0099400Y0114777D01*
X0099400Y0102794D01*
X0094765Y0098159D01*
X0094400Y0097277D01*
X0094400Y0094505D01*
X0093102Y0094505D01*
X0092047Y0093451D01*
X0092047Y0086842D01*
X0092174Y0086715D01*
X0092170Y0086707D01*
X0092047Y0086250D01*
X0092047Y0083933D01*
X0096320Y0083933D01*
X0096320Y0082974D01*
X0092047Y0082974D01*
X0092047Y0080658D01*
X0092170Y0080200D01*
X0092407Y0079789D01*
X0092742Y0079454D01*
X0093152Y0079217D01*
X0093610Y0079094D01*
X0096320Y0079094D01*
X0096320Y0082974D01*
X0097280Y0082974D01*
X0097280Y0083933D01*
X0101553Y0083933D01*
X0101553Y0086250D01*
X0101430Y0086707D01*
X0101426Y0086715D01*
X0101553Y0086842D01*
X0101553Y0093451D01*
X0100498Y0094505D01*
X0099200Y0094505D01*
X0099200Y0095806D01*
X0103159Y0099765D01*
X0103835Y0100441D01*
X0104200Y0101323D01*
X0104200Y0113306D01*
X0111413Y0120519D01*
X0112552Y0120519D01*
X0113942Y0121095D01*
X0115005Y0122158D01*
X0115581Y0123548D01*
X0115581Y0125052D01*
X0115005Y0126442D01*
X0113942Y0127505D01*
X0112552Y0128081D01*
X0111048Y0128081D01*
X0109658Y0127505D01*
X0108853Y0126700D01*
X0103460Y0126700D01*
X0103859Y0126865D01*
X0104535Y0127541D01*
X0127694Y0150700D01*
X0134506Y0150700D01*
X0136400Y0148806D01*
X0136400Y0140894D01*
X0136318Y0140812D01*
X0135330Y0141800D01*
X0136356Y0142826D01*
X0136356Y0148648D01*
X0135301Y0149702D01*
X0128298Y0149702D01*
X0127244Y0148648D01*
X0127244Y0146493D01*
X0121960Y0140581D01*
X0121048Y0140581D01*
X0119658Y0140005D01*
X0118595Y0138942D01*
X0118019Y0137552D01*
X0118019Y0136048D01*
X0118595Y0134658D01*
X0119658Y0133595D01*
X0121048Y0133019D01*
X0122552Y0133019D01*
X0123942Y0133595D01*
X0122705Y0133082D02*
X0129800Y0133082D01*
X0129800Y0131484D02*
X0108478Y0131484D01*
X0110076Y0133082D02*
X0120895Y0133082D01*
X0118585Y0134681D02*
X0111675Y0134681D01*
X0113274Y0136279D02*
X0118019Y0136279D01*
X0118154Y0137878D02*
X0114872Y0137878D01*
X0116471Y0139476D02*
X0119129Y0139476D01*
X0118069Y0141075D02*
X0122402Y0141075D01*
X0123830Y0142673D02*
X0119668Y0142673D01*
X0121266Y0144272D02*
X0125259Y0144272D01*
X0126688Y0145870D02*
X0122865Y0145870D01*
X0124463Y0147469D02*
X0127244Y0147469D01*
X0127664Y0149068D02*
X0126062Y0149068D01*
X0127660Y0150666D02*
X0134540Y0150666D01*
X0135936Y0149068D02*
X0136138Y0149068D01*
X0136356Y0147469D02*
X0136400Y0147469D01*
X0136356Y0145870D02*
X0136400Y0145870D01*
X0136356Y0144272D02*
X0136400Y0144272D01*
X0136400Y0142673D02*
X0136203Y0142673D01*
X0136055Y0141075D02*
X0136400Y0141075D01*
X0127244Y0137878D02*
X0125982Y0137878D01*
X0125581Y0136279D02*
X0127244Y0136279D01*
X0127515Y0134681D02*
X0125015Y0134681D01*
X0129800Y0129885D02*
X0106879Y0129885D01*
X0105281Y0128287D02*
X0129800Y0128287D01*
X0129800Y0126688D02*
X0114759Y0126688D01*
X0115565Y0125090D02*
X0129800Y0125090D01*
X0127244Y0123491D02*
X0115558Y0123491D01*
X0114740Y0121893D02*
X0127244Y0121893D01*
X0127244Y0120294D02*
X0111188Y0120294D01*
X0109590Y0118696D02*
X0127244Y0118696D01*
X0127973Y0117097D02*
X0107991Y0117097D01*
X0106393Y0115499D02*
X0127244Y0115499D01*
X0127244Y0113900D02*
X0104794Y0113900D01*
X0104200Y0112302D02*
X0127244Y0112302D01*
X0127244Y0110703D02*
X0104200Y0110703D01*
X0104200Y0109105D02*
X0128091Y0109105D01*
X0128700Y0107506D02*
X0104200Y0107506D01*
X0104200Y0105908D02*
X0128700Y0105908D01*
X0128700Y0104309D02*
X0104200Y0104309D01*
X0104200Y0102711D02*
X0128700Y0102711D01*
X0128700Y0101112D02*
X0104113Y0101112D01*
X0102908Y0099514D02*
X0128700Y0099514D01*
X0128700Y0097915D02*
X0101309Y0097915D01*
X0099711Y0096317D02*
X0128700Y0096317D01*
X0128700Y0094718D02*
X0099200Y0094718D01*
X0101553Y0093120D02*
X0112047Y0093120D01*
X0109291Y0091521D02*
X0101553Y0091521D01*
X0101553Y0089923D02*
X0107428Y0089923D01*
X0105830Y0088324D02*
X0101553Y0088324D01*
X0101436Y0086726D02*
X0104231Y0086726D01*
X0102652Y0085127D02*
X0101553Y0085127D01*
X0102300Y0083529D02*
X0097280Y0083529D01*
X0097280Y0082974D02*
X0101553Y0082974D01*
X0101553Y0080658D01*
X0101430Y0080200D01*
X0101193Y0079789D01*
X0100858Y0079454D01*
X0100448Y0079217D01*
X0099990Y0079094D01*
X0097280Y0079094D01*
X0097280Y0082974D01*
X0097280Y0081930D02*
X0096320Y0081930D01*
X0096320Y0080332D02*
X0097280Y0080332D01*
X0100639Y0078733D02*
X0093361Y0078733D01*
X0092135Y0080332D02*
X0091763Y0080332D01*
X0091700Y0081930D02*
X0092047Y0081930D01*
X0091700Y0083529D02*
X0096320Y0083529D01*
X0092047Y0085127D02*
X0091700Y0085127D01*
X0091700Y0086726D02*
X0092163Y0086726D01*
X0092047Y0088324D02*
X0091700Y0088324D01*
X0091700Y0089923D02*
X0092047Y0089923D01*
X0092047Y0091521D02*
X0091700Y0091521D01*
X0091700Y0093120D02*
X0092047Y0093120D01*
X0091700Y0094718D02*
X0094400Y0094718D01*
X0094400Y0096317D02*
X0091700Y0096317D01*
X0091700Y0097915D02*
X0094664Y0097915D01*
X0096120Y0099514D02*
X0091700Y0099514D01*
X0091700Y0101112D02*
X0097718Y0101112D01*
X0099317Y0102711D02*
X0091700Y0102711D01*
X0091700Y0104309D02*
X0099400Y0104309D01*
X0099400Y0105908D02*
X0091700Y0105908D01*
X0091700Y0107506D02*
X0099400Y0107506D01*
X0099400Y0109105D02*
X0091700Y0109105D01*
X0091700Y0110703D02*
X0099400Y0110703D01*
X0099400Y0112302D02*
X0092596Y0112302D01*
X0094194Y0113900D02*
X0099400Y0113900D01*
X0099699Y0115499D02*
X0095000Y0115499D01*
X0099543Y0117097D02*
X0101203Y0117097D01*
X0099700Y0118696D02*
X0102802Y0118696D01*
X0104400Y0120294D02*
X0099700Y0120294D01*
X0099338Y0121893D02*
X0105999Y0121893D01*
X0104535Y0127541D02*
X0104535Y0127541D01*
X0091393Y0142087D02*
X0105965Y0156659D01*
X0106641Y0157335D01*
X0107523Y0157700D01*
X0144100Y0157700D01*
X0144100Y0162638D01*
X0142826Y0162638D01*
X0141800Y0163664D01*
X0140774Y0162638D01*
X0134558Y0162638D01*
X0133504Y0163692D01*
X0133504Y0165000D01*
X0124702Y0165000D01*
X0124702Y0163298D01*
X0123648Y0162244D01*
X0117826Y0162244D01*
X0116800Y0163270D01*
X0115774Y0162244D01*
X0109952Y0162244D01*
X0108898Y0163298D01*
X0108898Y0165000D01*
X0090096Y0165000D01*
X0090096Y0163692D01*
X0089042Y0162638D01*
X0088400Y0162638D01*
X0088400Y0161423D01*
X0088035Y0160541D01*
X0087359Y0159865D01*
X0085159Y0157665D01*
X0084277Y0157300D01*
X0081494Y0157300D01*
X0066494Y0142300D01*
X0090877Y0142300D01*
X0091393Y0142087D01*
X0091979Y0142673D02*
X0066868Y0142673D01*
X0068466Y0144272D02*
X0093578Y0144272D01*
X0095176Y0145870D02*
X0070065Y0145870D01*
X0071663Y0147469D02*
X0096775Y0147469D01*
X0098373Y0149068D02*
X0073262Y0149068D01*
X0074860Y0150666D02*
X0099972Y0150666D01*
X0101570Y0152265D02*
X0076459Y0152265D01*
X0078057Y0153863D02*
X0103169Y0153863D01*
X0104767Y0155462D02*
X0079656Y0155462D01*
X0081254Y0157060D02*
X0106366Y0157060D01*
X0108898Y0163454D02*
X0089858Y0163454D01*
X0088400Y0161856D02*
X0144100Y0161856D01*
X0144100Y0160257D02*
X0087751Y0160257D01*
X0086153Y0158659D02*
X0144100Y0158659D01*
X0148900Y0158659D02*
X0160701Y0158659D01*
X0160701Y0160257D02*
X0148900Y0160257D01*
X0148900Y0161856D02*
X0160701Y0161856D01*
X0160701Y0163454D02*
X0149858Y0163454D01*
X0150096Y0165053D02*
X0160701Y0165053D01*
X0160701Y0166651D02*
X0150096Y0166651D01*
X0150096Y0168250D02*
X0160701Y0168250D01*
X0160701Y0169848D02*
X0150096Y0169848D01*
X0142010Y0163454D02*
X0141590Y0163454D01*
X0133742Y0163454D02*
X0124702Y0163454D01*
X0124702Y0169848D02*
X0133504Y0169848D01*
X0148900Y0157060D02*
X0160701Y0157060D01*
X0160701Y0155462D02*
X0148900Y0155462D01*
X0148900Y0153863D02*
X0160701Y0153863D01*
X0160701Y0152265D02*
X0148900Y0152265D01*
X0148900Y0150666D02*
X0160701Y0150666D01*
X0160701Y0149068D02*
X0148900Y0149068D01*
X0148900Y0147469D02*
X0160701Y0147469D01*
X0160701Y0145870D02*
X0148900Y0145870D01*
X0148900Y0144272D02*
X0160701Y0144272D01*
X0160701Y0142673D02*
X0148900Y0142673D01*
X0148900Y0141075D02*
X0160701Y0141075D01*
X0160701Y0139476D02*
X0148900Y0139476D01*
X0148900Y0137878D02*
X0160701Y0137878D01*
X0160701Y0136279D02*
X0148900Y0136279D01*
X0148900Y0134681D02*
X0160701Y0134681D01*
X0160701Y0133082D02*
X0148900Y0133082D01*
X0148900Y0131484D02*
X0160701Y0131484D01*
X0160701Y0129885D02*
X0148900Y0129885D01*
X0148900Y0128287D02*
X0160701Y0128287D01*
X0160701Y0126688D02*
X0148900Y0126688D01*
X0148900Y0125090D02*
X0160701Y0125090D01*
X0160701Y0123491D02*
X0148900Y0123491D01*
X0148900Y0121893D02*
X0160701Y0121893D01*
X0160701Y0120294D02*
X0147888Y0120294D01*
X0146290Y0118696D02*
X0160701Y0118696D01*
X0160701Y0117097D02*
X0144691Y0117097D01*
X0143093Y0115499D02*
X0160701Y0115499D01*
X0160701Y0113900D02*
X0141494Y0113900D01*
X0139896Y0112302D02*
X0160701Y0112302D01*
X0160701Y0110703D02*
X0138297Y0110703D01*
X0135509Y0109105D02*
X0160701Y0109105D01*
X0160701Y0107506D02*
X0133500Y0107506D01*
X0133500Y0105908D02*
X0160701Y0105908D01*
X0160701Y0104309D02*
X0133500Y0104309D01*
X0133500Y0102711D02*
X0160701Y0102711D01*
X0160701Y0101112D02*
X0133500Y0101112D01*
X0133500Y0099514D02*
X0160701Y0099514D01*
X0160701Y0097915D02*
X0133500Y0097915D01*
X0133500Y0096317D02*
X0160701Y0096317D01*
X0160701Y0094718D02*
X0133500Y0094718D01*
X0133500Y0093120D02*
X0160701Y0093120D01*
X0160701Y0091521D02*
X0133500Y0091521D01*
X0133500Y0089923D02*
X0160701Y0089923D01*
X0160701Y0088324D02*
X0133500Y0088324D01*
X0133500Y0086726D02*
X0160701Y0086726D01*
X0160701Y0085127D02*
X0133336Y0085127D01*
X0132023Y0083529D02*
X0160701Y0083529D01*
X0160701Y0081930D02*
X0130424Y0081930D01*
X0128826Y0080332D02*
X0160701Y0080332D01*
X0160701Y0078733D02*
X0127227Y0078733D01*
X0125629Y0077134D02*
X0160701Y0077134D01*
X0160701Y0075536D02*
X0124030Y0075536D01*
X0122432Y0073937D02*
X0160701Y0073937D01*
X0160701Y0072339D02*
X0120833Y0072339D01*
X0119235Y0070740D02*
X0160701Y0070740D01*
X0160701Y0069142D02*
X0117636Y0069142D01*
X0116038Y0067543D02*
X0160701Y0067543D01*
X0160701Y0065945D02*
X0114439Y0065945D01*
X0112841Y0064346D02*
X0160701Y0064346D01*
X0160701Y0062748D02*
X0111242Y0062748D01*
X0109643Y0061149D02*
X0160701Y0061149D01*
X0160701Y0059551D02*
X0108045Y0059551D01*
X0107100Y0057952D02*
X0160701Y0057952D01*
X0160701Y0056354D02*
X0107100Y0056354D01*
X0102855Y0061149D02*
X0011600Y0061149D01*
X0011600Y0059551D02*
X0102300Y0059551D01*
X0102300Y0057952D02*
X0011600Y0057952D01*
X0011600Y0056354D02*
X0102300Y0056354D01*
X0096895Y0054755D02*
X0081277Y0054755D01*
X0081277Y0055223D02*
X0080223Y0056277D01*
X0063377Y0056277D01*
X0062323Y0055223D01*
X0062323Y0038377D01*
X0063377Y0037323D01*
X0080223Y0037323D01*
X0081277Y0038377D01*
X0081277Y0055223D01*
X0081277Y0053157D02*
X0095984Y0053157D01*
X0095984Y0051558D02*
X0081277Y0051558D01*
X0081277Y0049960D02*
X0095984Y0049960D01*
X0095984Y0048361D02*
X0081277Y0048361D01*
X0081277Y0046763D02*
X0095984Y0046763D01*
X0094570Y0045164D02*
X0081277Y0045164D01*
X0081277Y0043566D02*
X0092972Y0043566D01*
X0091373Y0041967D02*
X0081277Y0041967D01*
X0081277Y0040369D02*
X0089775Y0040369D01*
X0088176Y0038770D02*
X0081277Y0038770D01*
X0086578Y0037172D02*
X0063422Y0037172D01*
X0062323Y0038770D02*
X0061824Y0038770D01*
X0062323Y0040369D02*
X0060225Y0040369D01*
X0058627Y0041967D02*
X0062323Y0041967D01*
X0062323Y0043566D02*
X0057028Y0043566D01*
X0055430Y0045164D02*
X0062323Y0045164D01*
X0062323Y0046763D02*
X0053831Y0046763D01*
X0052233Y0048361D02*
X0062323Y0048361D01*
X0062323Y0049960D02*
X0047616Y0049960D01*
X0047616Y0051558D02*
X0062323Y0051558D01*
X0062323Y0053157D02*
X0047616Y0053157D01*
X0046705Y0054755D02*
X0062323Y0054755D01*
X0051839Y0041967D02*
X0047616Y0041967D01*
X0047616Y0040369D02*
X0053437Y0040369D01*
X0055036Y0038770D02*
X0046631Y0038770D01*
X0047616Y0043566D02*
X0050240Y0043566D01*
X0056634Y0037172D02*
X0011600Y0037172D01*
X0011600Y0038770D02*
X0032402Y0038770D01*
X0031417Y0040369D02*
X0011600Y0040369D01*
X0011600Y0041967D02*
X0031417Y0041967D01*
X0031417Y0043566D02*
X0011600Y0043566D01*
X0011600Y0045164D02*
X0031417Y0045164D01*
X0031417Y0046763D02*
X0011600Y0046763D01*
X0011600Y0048361D02*
X0031417Y0048361D01*
X0031417Y0049960D02*
X0011600Y0049960D01*
X0011600Y0051558D02*
X0031417Y0051558D01*
X0031417Y0053157D02*
X0011600Y0053157D01*
X0011600Y0054755D02*
X0032328Y0054755D01*
X0011600Y0062748D02*
X0104454Y0062748D01*
X0106052Y0064346D02*
X0011600Y0064346D01*
X0011600Y0065945D02*
X0107651Y0065945D01*
X0109249Y0067543D02*
X0011600Y0067543D01*
X0011600Y0069142D02*
X0110848Y0069142D01*
X0112446Y0070740D02*
X0011600Y0070740D01*
X0011600Y0072339D02*
X0114045Y0072339D01*
X0115643Y0073937D02*
X0102451Y0073937D01*
X0104230Y0075536D02*
X0117242Y0075536D01*
X0118840Y0077134D02*
X0105829Y0077134D01*
X0107021Y0078733D02*
X0120439Y0078733D01*
X0120448Y0079217D02*
X0120858Y0079454D01*
X0121193Y0079789D01*
X0121430Y0080200D01*
X0121553Y0080658D01*
X0121553Y0082974D01*
X0117280Y0082974D01*
X0117280Y0079094D01*
X0119990Y0079094D01*
X0120448Y0079217D01*
X0121465Y0080332D02*
X0122037Y0080332D01*
X0121553Y0081930D02*
X0123636Y0081930D01*
X0125234Y0083529D02*
X0117280Y0083529D01*
X0116320Y0083529D02*
X0107823Y0083529D01*
X0107100Y0081930D02*
X0112047Y0081930D01*
X0112135Y0080332D02*
X0107100Y0080332D01*
X0109421Y0085127D02*
X0112047Y0085127D01*
X0112163Y0086726D02*
X0111020Y0086726D01*
X0116320Y0081930D02*
X0117280Y0081930D01*
X0117280Y0080332D02*
X0116320Y0080332D01*
X0121553Y0085127D02*
X0126833Y0085127D01*
X0128431Y0086726D02*
X0121436Y0086726D01*
X0121553Y0088324D02*
X0128700Y0088324D01*
X0128700Y0089923D02*
X0121553Y0089923D01*
X0121553Y0091521D02*
X0128700Y0091521D01*
X0128700Y0093120D02*
X0121553Y0093120D01*
X0102300Y0081930D02*
X0101553Y0081930D01*
X0101465Y0080332D02*
X0102237Y0080332D01*
X0091549Y0073937D02*
X0011600Y0073937D01*
X0011600Y0075536D02*
X0089770Y0075536D01*
X0088171Y0077134D02*
X0011600Y0077134D01*
X0011600Y0078733D02*
X0086979Y0078733D01*
X0086900Y0080332D02*
X0011600Y0080332D01*
X0011600Y0081930D02*
X0086900Y0081930D01*
X0086900Y0083529D02*
X0011600Y0083529D01*
X0011600Y0085127D02*
X0086900Y0085127D01*
X0086900Y0086726D02*
X0011600Y0086726D01*
X0011600Y0088324D02*
X0086900Y0088324D01*
X0086900Y0089923D02*
X0011600Y0089923D01*
X0011600Y0091521D02*
X0086900Y0091521D01*
X0086900Y0093120D02*
X0011600Y0093120D01*
X0011600Y0094718D02*
X0086900Y0094718D01*
X0086900Y0096317D02*
X0011600Y0096317D01*
X0011600Y0097915D02*
X0086900Y0097915D01*
X0086900Y0099514D02*
X0011600Y0099514D01*
X0011600Y0101112D02*
X0086900Y0101112D01*
X0086900Y0102711D02*
X0011600Y0102711D01*
X0011600Y0104309D02*
X0086900Y0104309D01*
X0086900Y0105908D02*
X0011600Y0105908D01*
X0011600Y0107506D02*
X0086900Y0107506D01*
X0086900Y0109105D02*
X0011600Y0109105D01*
X0011600Y0110703D02*
X0086900Y0110703D01*
X0086900Y0112302D02*
X0078296Y0112302D01*
X0079894Y0113900D02*
X0087406Y0113900D01*
X0089005Y0115499D02*
X0080700Y0115499D01*
X0080700Y0117097D02*
X0088257Y0117097D01*
X0088100Y0118696D02*
X0080700Y0118696D01*
X0080700Y0120294D02*
X0088100Y0120294D01*
X0088462Y0121893D02*
X0080700Y0121893D01*
X0080700Y0123491D02*
X0083615Y0123491D01*
X0082016Y0125090D02*
X0080004Y0125090D01*
X0084009Y0129885D02*
X0088100Y0129885D01*
X0088100Y0131346D02*
X0088100Y0127254D01*
X0088454Y0126900D01*
X0086994Y0126900D01*
X0082959Y0130935D01*
X0082077Y0131300D01*
X0081123Y0131300D01*
X0075500Y0131300D01*
X0075500Y0131346D01*
X0075046Y0131800D01*
X0075140Y0131895D01*
X0075377Y0132305D01*
X0075500Y0132763D01*
X0075500Y0134300D01*
X0075500Y0135837D01*
X0075377Y0136295D01*
X0075140Y0136705D01*
X0074805Y0137040D01*
X0074395Y0137277D01*
X0073937Y0137400D01*
X0069700Y0137400D01*
X0069700Y0134300D01*
X0069700Y0134300D01*
X0075500Y0134300D01*
X0069700Y0134300D01*
X0069700Y0134300D01*
X0069700Y0134300D01*
X0063900Y0134300D01*
X0063900Y0135837D01*
X0064023Y0136295D01*
X0064260Y0136705D01*
X0064595Y0137040D01*
X0065005Y0137277D01*
X0065463Y0137400D01*
X0069700Y0137400D01*
X0069700Y0134300D01*
X0063900Y0134300D01*
X0063900Y0132763D01*
X0064023Y0132305D01*
X0064260Y0131895D01*
X0064354Y0131800D01*
X0063900Y0131346D01*
X0063900Y0127254D01*
X0064354Y0126800D01*
X0063900Y0126346D01*
X0063900Y0122254D01*
X0064354Y0121800D01*
X0063954Y0121400D01*
X0063894Y0121400D01*
X0063100Y0122194D01*
X0063100Y0135606D01*
X0064994Y0137500D01*
X0089406Y0137500D01*
X0089506Y0137400D01*
X0089154Y0137400D01*
X0088100Y0136346D01*
X0088100Y0132254D01*
X0088554Y0131800D01*
X0088100Y0131346D01*
X0088238Y0131484D02*
X0075362Y0131484D01*
X0075500Y0133082D02*
X0088100Y0133082D01*
X0088100Y0134681D02*
X0075500Y0134681D01*
X0075381Y0136279D02*
X0088100Y0136279D01*
X0088100Y0128287D02*
X0085607Y0128287D01*
X0069700Y0134681D02*
X0069700Y0134681D01*
X0069700Y0136279D02*
X0069700Y0136279D01*
X0064019Y0136279D02*
X0063774Y0136279D01*
X0063900Y0134681D02*
X0063100Y0134681D01*
X0063100Y0133082D02*
X0063900Y0133082D01*
X0064038Y0131484D02*
X0063100Y0131484D01*
X0063100Y0129885D02*
X0063900Y0129885D01*
X0063900Y0128287D02*
X0063100Y0128287D01*
X0063100Y0126688D02*
X0064243Y0126688D01*
X0063900Y0125090D02*
X0063100Y0125090D01*
X0063100Y0123491D02*
X0063900Y0123491D01*
X0064262Y0121893D02*
X0063401Y0121893D01*
X0058607Y0115499D02*
X0011600Y0115499D01*
X0011600Y0117097D02*
X0057009Y0117097D01*
X0056100Y0118696D02*
X0011600Y0118696D01*
X0011600Y0120294D02*
X0056100Y0120294D01*
X0056100Y0121893D02*
X0011600Y0121893D01*
X0011600Y0123491D02*
X0056100Y0123491D01*
X0056100Y0125090D02*
X0011600Y0125090D01*
X0011600Y0126688D02*
X0056100Y0126688D01*
X0056100Y0128287D02*
X0011600Y0128287D01*
X0011600Y0129885D02*
X0056100Y0129885D01*
X0056100Y0131484D02*
X0011600Y0131484D01*
X0011600Y0133082D02*
X0056100Y0133082D01*
X0056100Y0134681D02*
X0011600Y0134681D01*
X0011600Y0136279D02*
X0056100Y0136279D01*
X0056100Y0137878D02*
X0011600Y0137878D01*
X0011600Y0139476D02*
X0056882Y0139476D01*
X0058481Y0141075D02*
X0011600Y0141075D01*
X0011600Y0142673D02*
X0060079Y0142673D01*
X0061678Y0144272D02*
X0011600Y0144272D01*
X0011600Y0145870D02*
X0063276Y0145870D01*
X0064875Y0147469D02*
X0011600Y0147469D01*
X0011600Y0149068D02*
X0066473Y0149068D01*
X0068072Y0150666D02*
X0011600Y0150666D01*
X0011600Y0152265D02*
X0069670Y0152265D01*
X0071269Y0153863D02*
X0011600Y0153863D01*
X0011600Y0155462D02*
X0072867Y0155462D01*
X0074466Y0157060D02*
X0011600Y0157060D01*
X0011600Y0158659D02*
X0076064Y0158659D01*
X0077663Y0160257D02*
X0011600Y0160257D01*
X0011600Y0161856D02*
X0079433Y0161856D01*
X0081590Y0163454D02*
X0082010Y0163454D01*
X0090096Y0169848D02*
X0108898Y0169848D01*
X0073504Y0169848D02*
X0069702Y0169848D01*
X0069702Y0163454D02*
X0073742Y0163454D01*
X0061772Y0163454D02*
X0061734Y0163454D01*
X0058146Y0163454D02*
X0057580Y0163454D01*
X0057580Y0162244D02*
X0057580Y0166517D01*
X0053898Y0166517D01*
X0053898Y0163807D01*
X0054020Y0163349D01*
X0054257Y0162939D01*
X0054592Y0162604D01*
X0055003Y0162367D01*
X0055461Y0162244D01*
X0057580Y0162244D01*
X0057580Y0165053D02*
X0058146Y0165053D01*
X0057580Y0166651D02*
X0011600Y0166651D01*
X0011600Y0165053D02*
X0053898Y0165053D01*
X0053992Y0163454D02*
X0011600Y0163454D01*
X0011600Y0168250D02*
X0053898Y0168250D01*
X0053912Y0169848D02*
X0011600Y0169848D01*
X0011600Y0171447D02*
X0160701Y0171447D01*
X0160701Y0173045D02*
X0011600Y0173045D01*
X0011600Y0174644D02*
X0160701Y0174644D01*
X0160701Y0176242D02*
X0011600Y0176242D01*
X0011600Y0177841D02*
X0160701Y0177841D01*
X0160701Y0179439D02*
X0011600Y0179439D01*
X0011600Y0181038D02*
X0160701Y0181038D01*
X0160701Y0182636D02*
X0011600Y0182636D01*
X0011600Y0184235D02*
X0160701Y0184235D01*
X0160701Y0185833D02*
X0011600Y0185833D01*
X0011600Y0187432D02*
X0160701Y0187432D01*
X0160701Y0189030D02*
X0011600Y0189030D01*
X0011600Y0190629D02*
X0160701Y0190629D01*
X0160701Y0192227D02*
X0011600Y0192227D01*
X0011600Y0193826D02*
X0160701Y0193826D01*
X0160701Y0195424D02*
X0011600Y0195424D01*
X0011600Y0196961D02*
X0160701Y0196961D01*
X0160701Y0011600D01*
X0023956Y0011600D01*
X0024207Y0011851D01*
X0025537Y0015062D01*
X0025537Y0018538D01*
X0024207Y0021749D01*
X0021749Y0024207D01*
X0018538Y0025537D01*
X0015062Y0025537D01*
X0011851Y0024207D01*
X0011600Y0023956D01*
X0011600Y0196961D01*
X0057580Y0169848D02*
X0058146Y0169848D01*
X0058146Y0168250D02*
X0057580Y0168250D01*
X0060206Y0113900D02*
X0011600Y0113900D01*
X0011600Y0112302D02*
X0061804Y0112302D01*
X0111272Y0054755D02*
X0160701Y0054755D01*
X0160701Y0053157D02*
X0112183Y0053157D01*
X0112183Y0051558D02*
X0160701Y0051558D01*
X0160701Y0049960D02*
X0112183Y0049960D01*
X0112183Y0048361D02*
X0160701Y0048361D01*
X0160701Y0046763D02*
X0112183Y0046763D01*
X0112183Y0045164D02*
X0160701Y0045164D01*
X0160701Y0043566D02*
X0112183Y0043566D01*
X0112183Y0041967D02*
X0160701Y0041967D01*
X0160701Y0040369D02*
X0112183Y0040369D01*
X0111198Y0038770D02*
X0160701Y0038770D01*
X0160701Y0037172D02*
X0093366Y0037172D01*
X0094964Y0038770D02*
X0096969Y0038770D01*
X0091767Y0035573D02*
X0160701Y0035573D01*
X0160701Y0033975D02*
X0090169Y0033975D01*
X0088570Y0032376D02*
X0160701Y0032376D01*
X0160701Y0030778D02*
X0011600Y0030778D01*
X0011600Y0032376D02*
X0061430Y0032376D01*
X0059831Y0033975D02*
X0011600Y0033975D01*
X0011600Y0035573D02*
X0058233Y0035573D01*
X0024440Y0021187D02*
X0160701Y0021187D01*
X0160701Y0022785D02*
X0023171Y0022785D01*
X0021322Y0024384D02*
X0160701Y0024384D01*
X0160701Y0025982D02*
X0011600Y0025982D01*
X0011600Y0024384D02*
X0012278Y0024384D01*
X0011600Y0027581D02*
X0160701Y0027581D01*
X0160701Y0029179D02*
X0011600Y0029179D01*
X0025102Y0019588D02*
X0160701Y0019588D01*
X0160701Y0017990D02*
X0025537Y0017990D01*
X0025537Y0016391D02*
X0160701Y0016391D01*
X0160701Y0014793D02*
X0025425Y0014793D01*
X0024763Y0013194D02*
X0160701Y0013194D01*
D20*
X0141800Y0056800D03*
X0116800Y0106800D03*
X0111800Y0124300D03*
X0121800Y0136800D03*
X0091800Y0151800D03*
X0084300Y0134300D03*
X0041800Y0151800D03*
X0041800Y0086800D03*
M02*
