G75*
%MOIN*%
%OFA0B0*%
%FSLAX25Y25*%
%IPPOS*%
%LPD*%
%AMOC8*
5,1,8,0,0,1.08239X$1,22.5*
%
%ADD10C,0.01600*%
%ADD11C,0.03962*%
%ADD12C,0.01200*%
D10*
X0011600Y0023956D02*
X0011600Y0196961D01*
X0160701Y0196961D01*
X0160701Y0011600D01*
X0023956Y0011600D01*
X0024207Y0011851D01*
X0025537Y0015062D01*
X0025537Y0018538D01*
X0024207Y0021749D01*
X0021749Y0024207D01*
X0018538Y0025537D01*
X0015062Y0025537D01*
X0011851Y0024207D01*
X0011600Y0023956D01*
X0011600Y0024384D02*
X0012278Y0024384D01*
X0011600Y0025982D02*
X0160701Y0025982D01*
X0160701Y0024384D02*
X0021322Y0024384D01*
X0023171Y0022785D02*
X0160701Y0022785D01*
X0160701Y0021187D02*
X0024440Y0021187D01*
X0025102Y0019588D02*
X0160701Y0019588D01*
X0160701Y0017990D02*
X0025537Y0017990D01*
X0025537Y0016391D02*
X0160701Y0016391D01*
X0160701Y0014793D02*
X0025425Y0014793D01*
X0024763Y0013194D02*
X0160701Y0013194D01*
X0160701Y0027581D02*
X0011600Y0027581D01*
X0011600Y0029179D02*
X0160701Y0029179D01*
X0160701Y0030778D02*
X0011600Y0030778D01*
X0011600Y0032376D02*
X0160701Y0032376D01*
X0160701Y0033975D02*
X0011600Y0033975D01*
X0011600Y0035573D02*
X0160701Y0035573D01*
X0160701Y0037172D02*
X0011600Y0037172D01*
X0011600Y0038770D02*
X0160701Y0038770D01*
X0160701Y0040369D02*
X0011600Y0040369D01*
X0011600Y0041967D02*
X0160701Y0041967D01*
X0160701Y0043566D02*
X0011600Y0043566D01*
X0011600Y0045164D02*
X0160701Y0045164D01*
X0160701Y0046763D02*
X0011600Y0046763D01*
X0011600Y0048361D02*
X0160701Y0048361D01*
X0160701Y0049960D02*
X0011600Y0049960D01*
X0011600Y0051558D02*
X0160701Y0051558D01*
X0160701Y0053157D02*
X0011600Y0053157D01*
X0011600Y0054755D02*
X0160701Y0054755D01*
X0160701Y0056354D02*
X0011600Y0056354D01*
X0011600Y0057952D02*
X0160701Y0057952D01*
X0160701Y0059551D02*
X0011600Y0059551D01*
X0011600Y0061149D02*
X0160701Y0061149D01*
X0160701Y0062748D02*
X0011600Y0062748D01*
X0011600Y0064346D02*
X0160701Y0064346D01*
X0160701Y0065945D02*
X0011600Y0065945D01*
X0011600Y0067543D02*
X0160701Y0067543D01*
X0160701Y0069142D02*
X0011600Y0069142D01*
X0011600Y0070740D02*
X0160701Y0070740D01*
X0160701Y0072339D02*
X0011600Y0072339D01*
X0011600Y0073937D02*
X0160701Y0073937D01*
X0160701Y0075536D02*
X0011600Y0075536D01*
X0011600Y0077134D02*
X0160701Y0077134D01*
X0160701Y0078733D02*
X0011600Y0078733D01*
X0011600Y0080332D02*
X0160701Y0080332D01*
X0160701Y0081930D02*
X0011600Y0081930D01*
X0011600Y0083529D02*
X0160701Y0083529D01*
X0160701Y0085127D02*
X0011600Y0085127D01*
X0011600Y0086726D02*
X0160701Y0086726D01*
X0160701Y0088324D02*
X0011600Y0088324D01*
X0011600Y0089923D02*
X0160701Y0089923D01*
X0160701Y0091521D02*
X0011600Y0091521D01*
X0011600Y0093120D02*
X0160701Y0093120D01*
X0160701Y0094718D02*
X0011600Y0094718D01*
X0011600Y0096317D02*
X0160701Y0096317D01*
X0160701Y0097915D02*
X0011600Y0097915D01*
X0011600Y0099514D02*
X0160701Y0099514D01*
X0160701Y0101112D02*
X0011600Y0101112D01*
X0011600Y0102711D02*
X0160701Y0102711D01*
X0160701Y0104309D02*
X0011600Y0104309D01*
X0011600Y0105908D02*
X0160701Y0105908D01*
X0160701Y0107506D02*
X0011600Y0107506D01*
X0011600Y0109105D02*
X0160701Y0109105D01*
X0160701Y0110703D02*
X0011600Y0110703D01*
X0011600Y0112302D02*
X0160701Y0112302D01*
X0160701Y0113900D02*
X0011600Y0113900D01*
X0011600Y0115499D02*
X0160701Y0115499D01*
X0160701Y0117097D02*
X0011600Y0117097D01*
X0011600Y0118696D02*
X0160701Y0118696D01*
X0160701Y0120294D02*
X0011600Y0120294D01*
X0011600Y0121893D02*
X0108860Y0121893D01*
X0108595Y0122158D02*
X0109658Y0121095D01*
X0111048Y0120519D01*
X0112552Y0120519D01*
X0113942Y0121095D01*
X0115005Y0122158D01*
X0115222Y0122682D01*
X0122095Y0124400D01*
X0122277Y0124400D01*
X0122554Y0124515D01*
X0122845Y0124587D01*
X0122991Y0124696D01*
X0123159Y0124765D01*
X0123371Y0124977D01*
X0123612Y0125156D01*
X0123706Y0125312D01*
X0123835Y0125441D01*
X0123949Y0125717D01*
X0124104Y0125975D01*
X0124130Y0126155D01*
X0124200Y0126323D01*
X0124200Y0126622D01*
X0124244Y0126919D01*
X0124200Y0127095D01*
X0124200Y0133853D01*
X0125005Y0134658D01*
X0125581Y0136048D01*
X0125581Y0137552D01*
X0125005Y0138942D01*
X0123942Y0140005D01*
X0122552Y0140581D01*
X0121048Y0140581D01*
X0119658Y0140005D01*
X0118595Y0138942D01*
X0118019Y0137552D01*
X0118019Y0136048D01*
X0118595Y0134658D01*
X0119400Y0133853D01*
X0119400Y0128674D01*
X0114099Y0127349D01*
X0113942Y0127505D01*
X0112552Y0128081D01*
X0111048Y0128081D01*
X0109658Y0127505D01*
X0108595Y0126442D01*
X0108019Y0125052D01*
X0108019Y0123548D01*
X0108595Y0122158D01*
X0108042Y0123491D02*
X0011600Y0123491D01*
X0011600Y0125090D02*
X0108035Y0125090D01*
X0108841Y0126688D02*
X0011600Y0126688D01*
X0011600Y0128287D02*
X0117852Y0128287D01*
X0119400Y0129885D02*
X0011600Y0129885D01*
X0011600Y0131484D02*
X0119400Y0131484D01*
X0119400Y0133082D02*
X0011600Y0133082D01*
X0011600Y0134681D02*
X0118585Y0134681D01*
X0118019Y0136279D02*
X0011600Y0136279D01*
X0011600Y0137878D02*
X0118154Y0137878D01*
X0119129Y0139476D02*
X0011600Y0139476D01*
X0011600Y0141075D02*
X0160701Y0141075D01*
X0160701Y0142673D02*
X0011600Y0142673D01*
X0011600Y0144272D02*
X0160701Y0144272D01*
X0160701Y0145870D02*
X0011600Y0145870D01*
X0011600Y0147469D02*
X0160701Y0147469D01*
X0160701Y0149068D02*
X0011600Y0149068D01*
X0011600Y0150666D02*
X0160701Y0150666D01*
X0160701Y0152265D02*
X0011600Y0152265D01*
X0011600Y0153863D02*
X0160701Y0153863D01*
X0160701Y0155462D02*
X0011600Y0155462D01*
X0011600Y0157060D02*
X0160701Y0157060D01*
X0160701Y0158659D02*
X0011600Y0158659D01*
X0011600Y0160257D02*
X0160701Y0160257D01*
X0160701Y0161856D02*
X0011600Y0161856D01*
X0011600Y0163454D02*
X0160701Y0163454D01*
X0160701Y0165053D02*
X0011600Y0165053D01*
X0011600Y0166651D02*
X0160701Y0166651D01*
X0160701Y0168250D02*
X0011600Y0168250D01*
X0011600Y0169848D02*
X0160701Y0169848D01*
X0160701Y0171447D02*
X0011600Y0171447D01*
X0011600Y0173045D02*
X0160701Y0173045D01*
X0160701Y0174644D02*
X0011600Y0174644D01*
X0011600Y0176242D02*
X0160701Y0176242D01*
X0160701Y0177841D02*
X0011600Y0177841D01*
X0011600Y0179439D02*
X0160701Y0179439D01*
X0160701Y0181038D02*
X0011600Y0181038D01*
X0011600Y0182636D02*
X0160701Y0182636D01*
X0160701Y0184235D02*
X0011600Y0184235D01*
X0011600Y0185833D02*
X0160701Y0185833D01*
X0160701Y0187432D02*
X0011600Y0187432D01*
X0011600Y0189030D02*
X0160701Y0189030D01*
X0160701Y0190629D02*
X0011600Y0190629D01*
X0011600Y0192227D02*
X0160701Y0192227D01*
X0160701Y0193826D02*
X0011600Y0193826D01*
X0011600Y0195424D02*
X0160701Y0195424D01*
X0160701Y0139476D02*
X0124471Y0139476D01*
X0125446Y0137878D02*
X0160701Y0137878D01*
X0160701Y0136279D02*
X0125581Y0136279D01*
X0125015Y0134681D02*
X0160701Y0134681D01*
X0160701Y0133082D02*
X0124200Y0133082D01*
X0124200Y0131484D02*
X0160701Y0131484D01*
X0160701Y0129885D02*
X0124200Y0129885D01*
X0124200Y0128287D02*
X0160701Y0128287D01*
X0160701Y0126688D02*
X0124210Y0126688D01*
X0123523Y0125090D02*
X0160701Y0125090D01*
X0160701Y0123491D02*
X0118461Y0123491D01*
X0114740Y0121893D02*
X0160701Y0121893D01*
D11*
X0121800Y0136800D03*
X0111800Y0124300D03*
X0116800Y0106800D03*
X0084300Y0134300D03*
X0091800Y0151800D03*
X0041800Y0151800D03*
X0041800Y0086800D03*
X0141800Y0056800D03*
D12*
X0121800Y0126800D02*
X0111800Y0124300D01*
X0121800Y0126800D02*
X0121800Y0136800D01*
M02*
